<?xml version="1.0" encoding="utf-8"?>
<!-- Generator: Adobe Illustrator 28.1.0, SVG Export Plug-In . SVG Version: 6.00 Build 0)  -->
<svg version="1.1" id="Layer_1" xmlns="http://www.w3.org/2000/svg" xmlns:xlink="http://www.w3.org/1999/xlink" x="0px" y="0px"
	 viewBox="0 0 1920 1080" style="enable-background:new 0 0 1920 1080;" xml:space="preserve">
<style type="text/css">
	.st0{fill:#F0EAF9;}
	.st1{fill:url(#SVGID_1_);}
	.st2{clip-path:url(#SVGID_00000049188105182329953990000009750307796272833199_);}
	.st3{fill:#02205F;}
	.st4{fill:#6930C3;}
</style>
<rect class="st0" width="1920" height="1080"/>
<linearGradient id="SVGID_1_" gradientUnits="userSpaceOnUse" x1="960.7853" y1="909.9286" x2="960.7853" y2="-9.094947e-13">
	<stop  offset="0" style="stop-color:#03EDC3"/>
	<stop  offset="0.0423" style="stop-color:#2BF0CD;stop-opacity:0.9577"/>
	<stop  offset="0.0963" style="stop-color:#57F3D7;stop-opacity:0.9037"/>
	<stop  offset="0.156" style="stop-color:#7FF6E1;stop-opacity:0.844"/>
	<stop  offset="0.2201" style="stop-color:#A2F8E9;stop-opacity:0.7799"/>
	<stop  offset="0.2898" style="stop-color:#BFFAF0;stop-opacity:0.7102"/>
	<stop  offset="0.3669" style="stop-color:#D7FCF5;stop-opacity:0.6331"/>
	<stop  offset="0.4545" style="stop-color:#E9FDFA;stop-opacity:0.5455"/>
	<stop  offset="0.5589" style="stop-color:#F6FEFD;stop-opacity:0.4411"/>
	<stop  offset="0.6969" style="stop-color:#FDFFFE;stop-opacity:0.3031"/>
	<stop  offset="1" style="stop-color:#FFFFFF;stop-opacity:0"/>
</linearGradient>
<polygon class="st1" points="0,909.93 1288.11,720 1921.57,812.44 1920,0 0,0 "/>
<g>
	<defs>
		<rect id="SVGID_00000065787418825610914540000003507614623021715611_" x="0" width="1920" height="1080"/>
	</defs>
	<clipPath id="SVGID_00000088131777663983519860000002200502329026703291_">
		<use xlink:href="#SVGID_00000065787418825610914540000003507614623021715611_"  style="overflow:visible;"/>
	</clipPath>
	<g style="clip-path:url(#SVGID_00000088131777663983519860000002200502329026703291_);">
		<g>
			<polygon class="st0" points="1288.11,719.63 3051.16,978.95 1263.72,1893.11 -474.06,978.95 			"/>
			<path class="st3" d="M1263.72,1893.51l-0.17-0.09L-475.2,978.76l1.09-0.16l1762.17-259.32l0.05-0.01l0.05,0.01l1764.16,259.48
				l-1,0.51l-1787.44,914.16L1263.72,1893.51z M-472.91,979.15l1736.63,913.56L3050,979.14L1288.11,720L-472.91,979.15z"/>
		</g>
		<g>
			<line class="st0" x1="-237.19" y1="944.09" x2="1592.64" y2="1724.89"/>
			
				<rect x="677.36" y="339.77" transform="matrix(0.3925 -0.9198 0.9198 0.3925 -815.6807 1434.0957)" class="st3" width="0.72" height="1989.45"/>
		</g>
		<g>
			<line class="st0" x1="-21.96" y1="912.42" x2="1860.44" y2="1587.92"/>
			
				<rect x="918.88" y="250.2" transform="matrix(0.3378 -0.9412 0.9412 0.3378 -567.9471 1693.1304)" class="st3" width="0.72" height="1999.94"/>
		</g>
		<g>
			<line class="st0" x1="174.46" y1="883.52" x2="2082.72" y2="1474.25"/>
			
				<rect x="1128.23" y="180.08" transform="matrix(0.2957 -0.9553 0.9553 0.2957 -331.3123 1908.3762)" class="st3" width="0.72" height="1997.6"/>
		</g>
		<g>
			<line class="st0" x1="354.45" y1="857.03" x2="2270.16" y2="1378.38"/>
			
				<rect x="1311.95" y="125.01" transform="matrix(0.2626 -0.9649 0.9649 0.2626 -110.7784 2090.4561)" class="st3" width="0.72" height="1985.39"/>
		</g>
		<g>
			<line class="st0" x1="519.98" y1="832.67" x2="2430.37" y2="1296.44"/>
			
				<rect x="1474.81" y="81.62" transform="matrix(0.2359 -0.9718 0.9718 0.2359 92.6534 2246.9541)" class="st3" width="0.72" height="1965.88"/>
		</g>
		<g>
			<line class="st0" x1="672.72" y1="810.19" x2="2568.88" y2="1225.61"/>
			
				<rect x="1620.44" y="47.34" transform="matrix(0.214 -0.9768 0.9768 0.214 279.6178 2383.3118)" class="st3" width="0.72" height="1941.13"/>
		</g>
		<g>
			<line class="st0" x1="814.1" y1="789.39" x2="2689.81" y2="1163.76"/>
			
				<rect x="1751.6" y="20.22" transform="matrix(0.1957 -0.9807 0.9807 0.1957 451.3636 2503.501)" class="st3" width="0.72" height="1912.7"/>
		</g>
		<g>
			<line class="st0" x1="945.35" y1="770.07" x2="2796.31" y2="1109.29"/>
			
				<rect x="1870.47" y="-1.21" transform="matrix(0.1803 -0.9836 0.9836 0.1803 609.3057 2610.48)" class="st3" width="0.72" height="1881.79"/>
		</g>
		<g>
			<line class="st0" x1="1067.51" y1="752.1" x2="2890.83" y2="1060.95"/>
			
				<rect x="1978.81" y="-18.12" transform="matrix(0.167 -0.986 0.986 0.167 754.8333 2706.4973)" class="st3" width="0.72" height="1849.29"/>
		</g>
		<g>
			<line class="st0" x1="1181.5" y1="735.32" x2="2975.27" y2="1017.77"/>
			
				<rect x="2078.03" y="-31.39" transform="matrix(0.1555 -0.9878 0.9878 0.1555 889.2348 2793.2966)" class="st3" width="0.72" height="1815.87"/>
		</g>
		<g>
			<line class="st0" x1="2812.82" y1="943.89" x2="942.21" y2="1723.98"/>
			
				<rect x="864.14" y="1333.58" transform="matrix(0.9229 -0.385 0.385 0.9229 -368.8574 825.7445)" class="st3" width="2026.75" height="0.72"/>
		</g>
		<g>
			<line class="st0" x1="2596.62" y1="912.09" x2="681.02" y2="1586.58"/>
			
				<rect x="623.38" y="1248.98" transform="matrix(0.9433 -0.332 0.332 0.9433 -321.8267 614.9565)" class="st3" width="2030.87" height="0.72"/>
		</g>
		<g>
			<line class="st0" x1="2399.61" y1="883.12" x2="464.63" y2="1472.75"/>
			
				<rect x="420.7" y="1177.57" transform="matrix(0.9567 -0.2912 0.2912 0.9567 -280.9131 467.9949)" class="st3" width="2022.82" height="0.72"/>
		</g>
		<g>
			<line class="st0" x1="2219.34" y1="856.6" x2="282.42" y2="1376.89"/>
			
				<rect x="248.09" y="1116.39" transform="matrix(0.9658 -0.2593 0.2593 0.9658 -246.7677 362.5069)" class="st3" width="2005.58" height="0.72"/>
		</g>
		<g>
			<line class="st0" x1="2053.77" y1="832.25" x2="126.88" y2="1295.08"/>
			
				<rect x="99.48" y="1063.3" transform="matrix(0.9724 -0.2334 0.2334 0.9724 -218.1826 283.9226)" class="st3" width="1981.69" height="0.72"/>
		</g>
		<g>
			<line class="st0" x1="1901.17" y1="809.8" x2="-7.43" y2="1224.42"/>
			
				<rect x="-29.69" y="1016.75" transform="matrix(0.9773 -0.2119 0.2119 0.9773 -193.9932 223.6945)" class="st3" width="1953.11" height="0.72"/>
		</g>
		<g>
			<line class="st0" x1="1760.07" y1="789.05" x2="-124.59" y2="1162.79"/>
			
				<rect x="-142.94" y="975.56" transform="matrix(0.9808 -0.1948 0.1948 0.9808 -174.4449 177.9928)" class="st3" width="1921.36" height="0.72"/>
		</g>
		<g>
			<line class="st0" x1="1629.23" y1="769.81" x2="-227.69" y2="1108.55"/>
			
				<rect x="-243.01" y="938.82" transform="matrix(0.9838 -0.1792 0.1792 0.9838 -156.9462 140.7683)" class="st3" width="1887.56" height="0.72"/>
		</g>
		<g>
			<line class="st0" x1="1507.55" y1="751.91" x2="-319.11" y2="1060.46"/>
			
				<rect x="-332.05" y="905.82" transform="matrix(0.986 -0.1665 0.1665 0.986 -142.5505 111.5543)" class="st3" width="1852.54" height="0.72"/>
		</g>
		<g>
			<line class="st0" x1="1394.12" y1="735.23" x2="-400.74" y2="1017.52"/>
			
				<rect x="-411.77" y="876.01" transform="matrix(0.9879 -0.1553 0.1553 0.9879 -130.0631 87.7596)" class="st3" width="1816.92" height="0.72"/>
		</g>
	</g>
</g>
<g>
	<g>
		<path class="st4" d="M1770.65,137.22c-1.3,0-2.59,0.08-3.89,0.19c-1.25,0.15-2.55,0.34-3.77,0.61c-1.26,0.23-2.47,0.53-3.65,0.91
			c-1.18,0.38-2.36,0.8-3.5,1.29c-1.14,0.46-2.25,1.03-3.31,1.6c-1.1,0.57-2.13,1.22-3.16,1.9c-0.99,0.69-1.98,1.41-2.93,2.21
			c-0.91,0.76-1.83,1.56-2.7,2.44c-0.84,0.88-1.67,1.75-2.44,2.7c-0.8,0.95-1.52,1.94-2.21,2.93c-0.69,1.03-1.3,2.06-1.9,3.16
			c-0.57,1.07-1.1,2.17-1.6,3.31c-0.5,1.14-0.91,2.32-1.3,3.5c-0.34,1.18-0.69,2.4-0.91,3.65c-0.27,1.22-0.46,2.48-0.57,3.77
			c-0.15,1.29-0.23,2.59-0.23,3.88c0-1.29-0.04-2.59-0.19-3.88c-0.11-1.29-0.3-2.55-0.57-3.77c-0.27-1.26-0.57-2.47-0.91-3.65
			c-0.38-1.18-0.8-2.36-1.29-3.5s-1.03-2.25-1.6-3.31c-0.61-1.1-1.22-2.13-1.9-3.16c-0.69-0.99-1.41-1.98-2.21-2.93
			c-0.76-0.95-1.6-1.83-2.44-2.7c-0.88-0.88-1.79-1.68-2.7-2.44c-0.95-0.8-1.94-1.52-2.93-2.21c-1.03-0.69-2.09-1.33-3.16-1.9
			c-1.07-0.57-2.17-1.14-3.31-1.6c-1.14-0.49-2.32-0.91-3.5-1.29c-1.18-0.38-2.4-0.69-3.65-0.91c-1.25-0.27-2.51-0.46-3.77-0.61
			c-1.29-0.11-2.59-0.19-3.92-0.19c1.33,0,2.63-0.08,3.92-0.19c1.26-0.11,2.51-0.3,3.77-0.57c1.26-0.27,2.48-0.57,3.65-0.95
			c1.18-0.34,2.36-0.8,3.5-1.26c1.14-0.49,2.25-1.03,3.31-1.6c1.07-0.61,2.13-1.26,3.16-1.94c0.99-0.69,1.98-1.41,2.93-2.17
			c0.91-0.8,1.83-1.6,2.7-2.47c0.84-0.84,1.67-1.75,2.44-2.7c0.8-0.91,1.52-1.9,2.21-2.93c0.68-0.99,1.29-2.06,1.9-3.12
			c0.57-1.07,1.1-2.21,1.6-3.35c0.49-1.1,0.91-2.28,1.29-3.46c0.34-1.22,0.65-2.44,0.91-3.66c0.27-1.26,0.46-2.51,0.57-3.81
			c0.15-1.26,0.19-2.55,0.19-3.88c0,1.33,0.07,2.63,0.23,3.88c0.12,1.29,0.3,2.55,0.57,3.81c0.23,1.22,0.57,2.44,0.91,3.66
			c0.38,1.18,0.8,2.36,1.3,3.46c0.49,1.14,1.03,2.28,1.6,3.35c0.61,1.07,1.22,2.13,1.9,3.12c0.68,1.03,1.41,2.02,2.21,2.93
			c0.76,0.95,1.6,1.87,2.44,2.7c0.88,0.88,1.79,1.68,2.7,2.47c0.95,0.76,1.94,1.48,2.93,2.17c1.03,0.69,2.06,1.33,3.16,1.94
			c1.07,0.57,2.17,1.1,3.31,1.6c1.14,0.46,2.32,0.91,3.5,1.26c1.18,0.38,2.4,0.69,3.65,0.95c1.22,0.27,2.51,0.46,3.77,0.57
			C1768.06,137.15,1769.35,137.22,1770.65,137.22z"/>
	</g>
	<g>
		<path class="st4" d="M1733.02,205.56h-0.89V175.3c0-1.55-0.06-2.73-0.19-3.83c-0.11-1.28-0.3-2.53-0.56-3.73
			c-0.26-1.24-0.57-2.46-0.91-3.63c-0.44-1.35-0.84-2.45-1.28-3.45c-0.49-1.13-1.02-2.23-1.58-3.28c-0.66-1.19-1.26-2.19-1.88-3.12
			c-0.8-1.16-1.5-2.08-2.18-2.89c-0.76-0.94-1.6-1.83-2.41-2.68c-0.74-0.74-1.59-1.51-2.67-2.41c-0.81-0.68-1.74-1.38-2.9-2.18
			c-1.05-0.7-2.1-1.33-3.12-1.88c-0.97-0.52-2.1-1.11-3.27-1.58c-1.01-0.44-2.11-0.84-3.47-1.28c-1.16-0.37-2.37-0.68-3.6-0.9
			c-1.13-0.24-2.35-0.44-3.74-0.61c-1.45-0.13-2.68-0.19-3.87-0.19h-30.27v-0.89h30.27c1.22,0,2.47,0.06,3.96,0.19
			c1.44,0.17,2.68,0.38,3.82,0.62c1.26,0.23,2.51,0.54,3.7,0.93c1.39,0.45,2.52,0.86,3.54,1.31c1.2,0.48,2.36,1.09,3.35,1.62
			c1.04,0.56,2.12,1.21,3.2,1.93c1.19,0.83,2.14,1.54,2.97,2.24c1.1,0.92,1.97,1.7,2.73,2.46c0.84,0.88,1.7,1.77,2.47,2.74
			c0.69,0.83,1.4,1.77,2.23,2.96c0.64,0.96,1.25,1.98,1.93,3.2c0.58,1.08,1.12,2.2,1.62,3.35c0.45,1.03,0.86,2.15,1.31,3.54
			c0.35,1.2,0.66,2.44,0.93,3.7c0.27,1.23,0.46,2.52,0.58,3.82c0.13,1.12,0.19,2.34,0.19,3.92V205.56z"/>
	</g>
	<g>
		<path class="st4" d="M1733.02,205.56h-0.89V175.3c0-1.31,0.08-2.63,0.23-3.94c0.11-1.29,0.31-2.58,0.58-3.81
			c0.23-1.26,0.57-2.46,0.92-3.68c0.45-1.4,0.87-2.53,1.31-3.56c0.5-1.15,1.04-2.27,1.62-3.35c0.67-1.22,1.28-2.23,1.93-3.2
			c0.83-1.19,1.54-2.14,2.24-2.97c0.77-0.96,1.62-1.85,2.45-2.72c0.78-0.78,1.64-1.56,2.74-2.47c0.84-0.7,1.78-1.41,2.96-2.23
			c0.85-0.57,1.98-1.3,3.21-1.93c0.98-0.53,2.14-1.13,3.35-1.62c1.01-0.44,2.14-0.86,3.53-1.3c1.19-0.38,2.44-0.7,3.71-0.93
			c1.06-0.23,2.27-0.43,3.8-0.61c1.48-0.13,2.76-0.19,3.94-0.19h30.27v0.89h-30.27c-1.15,0-2.4,0.06-3.84,0.19
			c-1.48,0.18-2.66,0.37-3.71,0.6c-1.25,0.23-2.46,0.53-3.61,0.9c-1.36,0.44-2.46,0.85-3.46,1.28c-1.18,0.47-2.31,1.06-3.28,1.58
			c-1.19,0.61-2.24,1.3-3.12,1.88c-1.15,0.8-2.08,1.49-2.89,2.18c-1.08,0.9-1.93,1.67-2.68,2.41c-0.81,0.85-1.66,1.73-2.4,2.67
			c-0.69,0.82-1.38,1.74-2.19,2.91c-0.62,0.93-1.22,1.93-1.88,3.12c-0.56,1.05-1.09,2.15-1.58,3.27c-0.43,1-0.84,2.1-1.28,3.46
			c-0.34,1.19-0.68,2.37-0.9,3.6c-0.26,1.21-0.45,2.46-0.57,3.73c-0.15,1.28-0.23,2.57-0.23,3.84V205.56z"/>
	</g>
	<g>
		<path class="st4" d="M1694.5,137.67h-30.27v-0.89h30.27c1.19,0,2.43-0.06,3.88-0.19c1.23-0.11,2.48-0.3,3.72-0.56
			c1.37-0.29,2.55-0.6,3.61-0.94c1.21-0.35,2.43-0.83,3.47-1.25c1.11-0.48,2.22-1.01,3.27-1.58c1.15-0.65,2.17-1.28,3.12-1.92
			c1.08-0.75,2.03-1.45,2.9-2.15c0.88-0.77,1.8-1.58,2.67-2.44c0.9-0.9,1.71-1.79,2.4-2.67c0.72-0.82,1.43-1.76,2.19-2.9
			c0.68-0.98,1.29-2.05,1.88-3.08c0.51-0.96,1.03-2.04,1.59-3.32c0.43-0.95,0.83-2.04,1.28-3.42c0.33-1.19,0.64-2.41,0.9-3.61
			c0.27-1.26,0.45-2.48,0.56-3.75c0.17-1.38,0.19-2.78,0.19-3.84V68.88h0.89v30.27c0,1.09-0.02,2.52-0.19,3.94
			c-0.11,1.29-0.3,2.55-0.58,3.85c-0.27,1.22-0.58,2.46-0.92,3.68c-0.46,1.43-0.88,2.55-1.32,3.53c-0.56,1.29-1.09,2.4-1.61,3.38
			c-0.62,1.08-1.24,2.16-1.93,3.17c-0.78,1.16-1.51,2.14-2.24,2.97c-0.71,0.88-1.54,1.8-2.46,2.72c-0.88,0.88-1.81,1.7-2.72,2.49
			c-0.91,0.73-1.88,1.44-2.98,2.21c-0.98,0.65-2.02,1.29-3.19,1.96c-1.08,0.58-2.21,1.12-3.36,1.62c-1.08,0.43-2.32,0.92-3.56,1.28
			c-1.08,0.35-2.29,0.66-3.69,0.96c-1.27,0.27-2.55,0.46-3.82,0.58C1696.98,137.61,1695.72,137.67,1694.5,137.67z"/>
	</g>
	<g>
		<path class="st4" d="M1800.92,137.67h-30.27c-1.18,0-2.46-0.06-3.92-0.19c-1.32-0.12-2.64-0.32-3.83-0.58
			c-1.4-0.3-2.61-0.61-3.7-0.96c-1.23-0.36-2.47-0.84-3.53-1.27c-1.16-0.5-2.28-1.04-3.36-1.62c-1-0.55-2.01-1.17-3.2-1.96
			c-1.11-0.77-2.07-1.48-2.96-2.19c-0.92-0.8-1.85-1.62-2.74-2.51c-0.92-0.92-1.75-1.84-2.47-2.74c-0.72-0.82-1.45-1.79-2.23-2.96
			c-0.69-1-1.32-2.09-1.92-3.15c-0.53-0.99-1.06-2.1-1.62-3.39c-0.44-0.97-0.85-2.09-1.31-3.5c-0.35-1.23-0.7-2.48-0.93-3.71
			c-0.27-1.28-0.46-2.55-0.58-3.85c-0.15-1.25-0.23-2.58-0.23-3.92v-24.6h0.89v24.6c0,1.31,0.08,2.6,0.23,3.83
			c0.11,1.28,0.3,2.51,0.56,3.77c0.23,1.2,0.57,2.43,0.9,3.61c0.45,1.39,0.85,2.47,1.28,3.42c0.55,1.28,1.07,2.36,1.59,3.32
			c0.59,1.03,1.2,2.1,1.88,3.08c0.76,1.14,1.47,2.09,2.18,2.89c0.71,0.89,1.52,1.78,2.42,2.68c0.87,0.87,1.79,1.67,2.68,2.45
			c0.86,0.68,1.81,1.39,2.89,2.14c1.16,0.77,2.15,1.38,3.12,1.92c1.05,0.56,2.15,1.09,3.27,1.58c1.03,0.41,2.25,0.89,3.45,1.24
			c1.07,0.35,2.26,0.65,3.62,0.94c1.15,0.25,2.44,0.45,3.72,0.56c1.44,0.13,2.69,0.19,3.84,0.19h30.27V137.67z"/>
	</g>
</g>
<g>
	<g>
		<path class="st4" d="M365.43,140.28c-0.47,0-0.94,0.03-1.41,0.07c-0.46,0.06-0.93,0.12-1.37,0.22c-0.46,0.08-0.9,0.19-1.33,0.33
			c-0.43,0.14-0.86,0.29-1.27,0.47c-0.42,0.17-0.82,0.37-1.2,0.58c-0.4,0.21-0.77,0.44-1.15,0.69c-0.36,0.25-0.72,0.51-1.07,0.8
			c-0.33,0.28-0.66,0.57-0.98,0.89c-0.3,0.32-0.61,0.64-0.89,0.98c-0.29,0.35-0.55,0.71-0.8,1.07c-0.25,0.37-0.47,0.75-0.69,1.15
			c-0.21,0.39-0.4,0.79-0.58,1.2c-0.18,0.42-0.33,0.84-0.47,1.27c-0.12,0.43-0.25,0.87-0.33,1.33c-0.1,0.44-0.17,0.9-0.21,1.37
			c-0.06,0.47-0.08,0.94-0.08,1.41c0-0.47-0.01-0.94-0.07-1.41c-0.04-0.47-0.11-0.93-0.21-1.37c-0.1-0.46-0.21-0.9-0.33-1.33
			c-0.14-0.43-0.29-0.86-0.47-1.27c-0.18-0.42-0.37-0.82-0.58-1.2c-0.22-0.4-0.44-0.77-0.69-1.15c-0.25-0.36-0.51-0.72-0.8-1.07
			c-0.28-0.35-0.58-0.66-0.89-0.98c-0.32-0.32-0.65-0.61-0.98-0.89c-0.35-0.29-0.71-0.55-1.07-0.8c-0.37-0.25-0.76-0.48-1.15-0.69
			c-0.39-0.21-0.79-0.41-1.2-0.58c-0.42-0.18-0.84-0.33-1.27-0.47c-0.43-0.14-0.87-0.25-1.33-0.33c-0.46-0.1-0.91-0.17-1.37-0.22
			c-0.47-0.04-0.94-0.07-1.42-0.07c0.48,0,0.95-0.03,1.42-0.07c0.46-0.04,0.91-0.11,1.37-0.21c0.46-0.1,0.9-0.21,1.33-0.35
			c0.43-0.12,0.86-0.29,1.27-0.46c0.41-0.18,0.82-0.37,1.2-0.58c0.39-0.22,0.77-0.46,1.15-0.71c0.36-0.25,0.72-0.51,1.07-0.79
			c0.33-0.29,0.66-0.58,0.98-0.9c0.3-0.3,0.61-0.64,0.89-0.98c0.29-0.33,0.55-0.69,0.8-1.07c0.25-0.36,0.47-0.75,0.69-1.13
			c0.21-0.39,0.4-0.8,0.58-1.22c0.18-0.4,0.33-0.83,0.47-1.26c0.12-0.44,0.24-0.89,0.33-1.33c0.1-0.46,0.17-0.91,0.21-1.38
			c0.06-0.46,0.07-0.93,0.07-1.41c0,0.48,0.03,0.95,0.08,1.41c0.04,0.47,0.11,0.93,0.21,1.38c0.08,0.44,0.21,0.89,0.33,1.33
			c0.14,0.43,0.29,0.86,0.47,1.26c0.18,0.41,0.37,0.83,0.58,1.22c0.22,0.39,0.44,0.77,0.69,1.13c0.25,0.37,0.51,0.73,0.8,1.07
			c0.28,0.35,0.58,0.68,0.89,0.98c0.32,0.32,0.65,0.61,0.98,0.9c0.35,0.28,0.71,0.54,1.07,0.79c0.37,0.25,0.75,0.48,1.15,0.71
			c0.39,0.21,0.79,0.4,1.2,0.58c0.41,0.17,0.84,0.33,1.27,0.46c0.43,0.14,0.87,0.25,1.33,0.35c0.44,0.1,0.91,0.17,1.37,0.21
			C364.49,140.26,364.96,140.28,365.43,140.28z"/>
	</g>
	<g>
		<path class="st4" d="M352.05,165.12h-0.91v-11c0-0.55-0.02-0.97-0.07-1.36c-0.04-0.46-0.11-0.9-0.2-1.33
			c-0.09-0.45-0.2-0.88-0.32-1.3c-0.15-0.47-0.3-0.86-0.45-1.22c-0.17-0.4-0.36-0.79-0.56-1.17c-0.23-0.42-0.45-0.78-0.67-1.11
			c-0.28-0.41-0.53-0.74-0.77-1.03c-0.27-0.34-0.56-0.64-0.87-0.96c-0.26-0.26-0.56-0.53-0.94-0.85c-0.29-0.24-0.62-0.49-1.03-0.78
			c-0.37-0.25-0.74-0.47-1.1-0.66c-0.34-0.18-0.75-0.4-1.16-0.56c-0.37-0.16-0.76-0.3-1.24-0.46c-0.41-0.13-0.83-0.24-1.27-0.32
			c-0.41-0.09-0.84-0.16-1.34-0.22c-0.5-0.04-0.95-0.07-1.37-0.07h-11v-0.91h11c0.45,0,0.92,0.02,1.47,0.07
			c0.54,0.07,1,0.14,1.42,0.23c0.46,0.08,0.93,0.2,1.37,0.34c0.51,0.17,0.93,0.32,1.31,0.49c0.44,0.18,0.87,0.4,1.24,0.6
			c0.39,0.21,0.78,0.45,1.19,0.71c0.45,0.31,0.8,0.57,1.11,0.83c0.4,0.34,0.73,0.63,1.01,0.91c0.31,0.33,0.63,0.66,0.92,1.02
			c0.25,0.3,0.52,0.65,0.82,1.09c0.24,0.36,0.47,0.74,0.72,1.19c0.22,0.4,0.42,0.82,0.6,1.24c0.17,0.38,0.32,0.8,0.49,1.31
			c0.13,0.45,0.25,0.91,0.34,1.37c0.1,0.46,0.17,0.94,0.22,1.42c0.05,0.41,0.07,0.86,0.07,1.45V165.12z"/>
	</g>
	<g>
		<path class="st4" d="M352.05,165.12h-0.91v-11c0-0.49,0.03-0.98,0.09-1.46c0.04-0.47,0.11-0.95,0.22-1.41
			c0.08-0.46,0.21-0.92,0.34-1.36c0.17-0.53,0.32-0.95,0.49-1.33c0.18-0.42,0.38-0.84,0.6-1.24c0.25-0.45,0.48-0.83,0.71-1.19
			c0.31-0.44,0.57-0.79,0.83-1.11c0.28-0.35,0.6-0.68,0.91-1c0.29-0.29,0.61-0.58,1.02-0.92c0.31-0.26,0.66-0.52,1.1-0.83
			c0.32-0.21,0.74-0.48,1.2-0.72c0.36-0.19,0.79-0.42,1.24-0.6c0.37-0.16,0.79-0.32,1.3-0.48c0.45-0.14,0.91-0.26,1.39-0.35
			c0.39-0.08,0.83-0.16,1.4-0.23c0.55-0.05,1.03-0.07,1.47-0.07h11v0.91h-11c-0.41,0-0.86,0.02-1.37,0.07
			c-0.52,0.06-0.94,0.13-1.31,0.21c-0.45,0.08-0.88,0.19-1.29,0.32c-0.48,0.16-0.88,0.3-1.23,0.45c-0.42,0.17-0.82,0.38-1.17,0.56
			c-0.34,0.17-0.67,0.37-1.11,0.67c-0.41,0.28-0.74,0.53-1.02,0.77c-0.39,0.32-0.69,0.59-0.95,0.86c-0.3,0.31-0.59,0.61-0.85,0.94
			c-0.25,0.3-0.5,0.63-0.78,1.04c-0.22,0.33-0.43,0.68-0.67,1.11c-0.2,0.37-0.39,0.76-0.56,1.16c-0.15,0.35-0.3,0.75-0.46,1.23
			c-0.12,0.42-0.24,0.84-0.32,1.27c-0.1,0.44-0.16,0.88-0.2,1.33c-0.05,0.46-0.08,0.92-0.08,1.37V165.12z"/>
	</g>
	<g>
		<path class="st4" d="M337.76,140.74h-11v-0.91h11c0.42,0,0.86-0.02,1.38-0.07c0.44-0.04,0.88-0.11,1.32-0.2
			c0.49-0.1,0.91-0.21,1.28-0.33c0.44-0.13,0.87-0.3,1.24-0.45c0.39-0.17,0.78-0.36,1.16-0.56c0.4-0.23,0.77-0.45,1.11-0.68
			c0.38-0.26,0.72-0.52,1.03-0.77c0.3-0.27,0.64-0.56,0.95-0.87c0.32-0.32,0.61-0.64,0.85-0.94c0.26-0.3,0.51-0.63,0.78-1.03
			c0.24-0.35,0.45-0.72,0.68-1.11c0.18-0.33,0.36-0.72,0.56-1.17c0.15-0.34,0.3-0.72,0.46-1.22c0.12-0.42,0.23-0.85,0.32-1.29
			c0.09-0.44,0.16-0.88,0.2-1.33c0.05-0.39,0.07-0.81,0.07-1.37v-11h0.91v11c0,0.4-0.01,0.94-0.07,1.47
			c-0.04,0.47-0.11,0.94-0.21,1.42c-0.1,0.45-0.21,0.91-0.34,1.36c-0.17,0.54-0.33,0.96-0.49,1.32c-0.2,0.47-0.4,0.88-0.6,1.25
			c-0.23,0.4-0.46,0.8-0.72,1.18c-0.29,0.43-0.56,0.79-0.83,1.11c-0.25,0.32-0.56,0.66-0.91,1c-0.33,0.33-0.67,0.63-1,0.92
			c-0.34,0.27-0.7,0.54-1.11,0.82c-0.37,0.24-0.75,0.48-1.18,0.73c-0.41,0.22-0.82,0.42-1.25,0.6c-0.41,0.16-0.87,0.34-1.33,0.48
			c-0.39,0.13-0.84,0.24-1.36,0.35c-0.47,0.1-0.95,0.17-1.42,0.22C338.67,140.72,338.21,140.74,337.76,140.74z"/>
	</g>
	<g>
		<path class="st4" d="M376.43,140.74h-11c-0.44,0-0.91-0.02-1.45-0.07c-0.49-0.04-0.98-0.12-1.43-0.22
			c-0.52-0.11-0.97-0.23-1.37-0.36c-0.45-0.13-0.91-0.31-1.3-0.47c-0.44-0.19-0.85-0.39-1.25-0.6c-0.37-0.21-0.75-0.44-1.19-0.73
			c-0.41-0.29-0.77-0.55-1.1-0.81c-0.35-0.3-0.69-0.6-1.02-0.93c-0.34-0.34-0.65-0.69-0.92-1.02c-0.26-0.3-0.54-0.66-0.83-1.1
			c-0.26-0.37-0.49-0.77-0.71-1.16c-0.2-0.37-0.4-0.78-0.6-1.26c-0.16-0.36-0.32-0.77-0.49-1.3c-0.13-0.46-0.26-0.92-0.35-1.38
			c-0.1-0.47-0.17-0.94-0.21-1.43c-0.06-0.46-0.08-0.95-0.08-1.45v-8.94h0.91v8.94c0,0.46,0.03,0.92,0.08,1.36
			c0.04,0.46,0.11,0.9,0.2,1.34c0.08,0.43,0.2,0.85,0.32,1.3c0.15,0.48,0.3,0.86,0.45,1.2c0.2,0.46,0.38,0.85,0.57,1.19
			c0.22,0.38,0.43,0.75,0.66,1.09c0.27,0.41,0.52,0.74,0.77,1.03c0.26,0.32,0.55,0.64,0.86,0.96c0.31,0.31,0.64,0.6,0.96,0.88
			c0.3,0.24,0.64,0.49,1.02,0.76c0.41,0.27,0.76,0.49,1.11,0.68c0.37,0.2,0.76,0.39,1.16,0.56c0.36,0.14,0.8,0.31,1.22,0.44
			c0.39,0.13,0.81,0.23,1.3,0.34c0.41,0.09,0.86,0.16,1.32,0.2c0.51,0.05,0.96,0.07,1.37,0.07h11V140.74z"/>
	</g>
</g>
<g>
	<g>
		<path class="st4" d="M1522.12,307.02c-0.81,0-1.62,0.05-2.44,0.12c-0.79,0.1-1.6,0.22-2.36,0.38c-0.79,0.14-1.55,0.33-2.29,0.57
			s-1.48,0.5-2.2,0.81c-0.72,0.29-1.41,0.64-2.08,1c-0.69,0.36-1.34,0.76-1.98,1.19c-0.62,0.43-1.24,0.88-1.84,1.39
			c-0.57,0.48-1.15,0.98-1.7,1.53c-0.52,0.55-1.05,1.1-1.53,1.7c-0.5,0.6-0.96,1.22-1.39,1.84c-0.43,0.64-0.81,1.29-1.19,1.98
			c-0.36,0.67-0.69,1.36-1,2.08c-0.31,0.72-0.57,1.46-0.81,2.2c-0.21,0.74-0.43,1.51-0.57,2.29c-0.17,0.76-0.29,1.55-0.36,2.37
			c-0.1,0.81-0.14,1.62-0.14,2.44c0-0.81-0.02-1.62-0.12-2.44c-0.07-0.81-0.19-1.6-0.36-2.37c-0.17-0.79-0.36-1.55-0.57-2.29
			c-0.24-0.74-0.5-1.48-0.81-2.2c-0.31-0.72-0.64-1.41-1-2.08c-0.38-0.69-0.77-1.34-1.19-1.98c-0.43-0.62-0.88-1.24-1.39-1.84
			c-0.48-0.6-1-1.15-1.53-1.7c-0.55-0.55-1.12-1.05-1.7-1.53c-0.6-0.5-1.22-0.96-1.84-1.39c-0.65-0.43-1.31-0.84-1.98-1.19
			c-0.67-0.36-1.36-0.72-2.08-1c-0.72-0.31-1.46-0.57-2.2-0.81c-0.74-0.24-1.5-0.43-2.29-0.57c-0.79-0.17-1.58-0.29-2.36-0.38
			c-0.81-0.07-1.62-0.12-2.46-0.12c0.84,0,1.65-0.05,2.46-0.12c0.79-0.07,1.58-0.19,2.36-0.36c0.79-0.17,1.55-0.36,2.29-0.6
			c0.74-0.21,1.48-0.5,2.2-0.79c0.72-0.31,1.41-0.64,2.08-1c0.67-0.38,1.34-0.79,1.98-1.22c0.62-0.43,1.24-0.88,1.84-1.36
			c0.57-0.5,1.15-1,1.7-1.55c0.53-0.53,1.05-1.1,1.53-1.7c0.5-0.57,0.96-1.19,1.39-1.84c0.43-0.62,0.81-1.29,1.19-1.96
			c0.36-0.67,0.69-1.39,1-2.1c0.31-0.69,0.57-1.43,0.81-2.17c0.22-0.76,0.41-1.53,0.57-2.29c0.17-0.79,0.29-1.58,0.36-2.39
			c0.1-0.79,0.12-1.6,0.12-2.44c0,0.84,0.05,1.65,0.14,2.44c0.07,0.81,0.19,1.6,0.36,2.39c0.14,0.76,0.36,1.53,0.57,2.29
			c0.24,0.74,0.5,1.48,0.81,2.17c0.31,0.72,0.64,1.43,1,2.1c0.38,0.67,0.76,1.34,1.19,1.96c0.43,0.64,0.88,1.27,1.39,1.84
			c0.48,0.6,1,1.17,1.53,1.7c0.55,0.55,1.12,1.05,1.7,1.55c0.6,0.48,1.22,0.93,1.84,1.36c0.65,0.43,1.29,0.84,1.98,1.22
			c0.67,0.36,1.36,0.69,2.08,1c0.72,0.29,1.46,0.57,2.2,0.79c0.74,0.24,1.5,0.43,2.29,0.6c0.76,0.17,1.58,0.29,2.36,0.36
			C1520.49,306.98,1521.31,307.02,1522.12,307.02z"/>
	</g>
	<g>
		<path class="st4" d="M1499.02,349.9h-1.58v-18.99c0-0.95-0.04-1.67-0.11-2.34c-0.07-0.8-0.19-1.56-0.35-2.29
			c-0.16-0.77-0.35-1.52-0.56-2.24c-0.26-0.82-0.51-1.49-0.78-2.1c-0.3-0.69-0.63-1.37-0.97-2.02c-0.4-0.73-0.77-1.34-1.16-1.92
			c-0.49-0.71-0.91-1.27-1.33-1.77c-0.47-0.58-0.97-1.11-1.49-1.66c-0.44-0.44-0.97-0.91-1.63-1.47c-0.5-0.42-1.07-0.85-1.78-1.34
			c-0.64-0.43-1.28-0.82-1.91-1.15c-0.59-0.32-1.29-0.68-2-0.97c-0.63-0.27-1.31-0.52-2.15-0.79c-0.7-0.23-1.44-0.41-2.19-0.55
			c-0.71-0.15-1.46-0.27-2.32-0.38c-0.87-0.08-1.63-0.11-2.37-0.11h-18.99v-1.58h18.99c0.78,0,1.59,0.04,2.53,0.12
			c0.93,0.11,1.73,0.24,2.46,0.4c0.8,0.14,1.6,0.35,2.37,0.59c0.89,0.29,1.61,0.55,2.27,0.84c0.76,0.3,1.5,0.69,2.14,1.03
			c0.67,0.36,1.35,0.77,2.05,1.23c0.77,0.53,1.37,0.99,1.91,1.44c0.7,0.58,1.26,1.08,1.75,1.57c0.54,0.57,1.09,1.14,1.59,1.76
			c0.44,0.52,0.89,1.13,1.42,1.88c0.42,0.63,0.81,1.27,1.24,2.05c0.37,0.69,0.72,1.41,1.04,2.15c0.29,0.66,0.55,1.38,0.84,2.27
			c0.23,0.78,0.42,1.57,0.59,2.37c0.17,0.79,0.3,1.62,0.37,2.46c0.08,0.71,0.12,1.49,0.12,2.51V349.9z"/>
	</g>
	<g>
		<path class="st4" d="M1499.02,349.9h-1.58v-18.99c0-0.84,0.05-1.69,0.15-2.53c0.07-0.82,0.2-1.65,0.37-2.44
			c0.14-0.8,0.37-1.6,0.59-2.34c0.29-0.91,0.56-1.63,0.85-2.29c0.32-0.73,0.66-1.45,1.03-2.14c0.43-0.79,0.82-1.43,1.23-2.05
			c0.53-0.77,0.99-1.37,1.44-1.91c0.49-0.61,1.03-1.18,1.56-1.73c0.5-0.5,1.06-1,1.76-1.59c0.53-0.45,1.14-0.9,1.89-1.43
			c0.55-0.37,1.28-0.84,2.07-1.25c0.62-0.33,1.36-0.72,2.15-1.03c0.64-0.28,1.36-0.54,2.25-0.83c0.77-0.25,1.58-0.45,2.39-0.6
			c0.67-0.15,1.44-0.27,2.41-0.39c0.96-0.08,1.78-0.12,2.53-0.12h18.99v1.58h-18.99c-0.71,0-1.48,0.04-2.37,0.12
			c-0.89,0.11-1.62,0.23-2.27,0.37c-0.78,0.14-1.52,0.33-2.22,0.55c-0.84,0.27-1.51,0.52-2.13,0.79c-0.73,0.29-1.42,0.66-2.02,0.97
			c-0.58,0.3-1.15,0.65-1.92,1.15c-0.71,0.49-1.27,0.91-1.77,1.33c-0.67,0.56-1.19,1.03-1.65,1.48c-0.52,0.54-1.01,1.06-1.47,1.63
			c-0.43,0.51-0.86,1.08-1.35,1.8c-0.38,0.57-0.75,1.18-1.15,1.91c-0.34,0.64-0.67,1.32-0.97,2.01c-0.27,0.61-0.51,1.29-0.79,2.13
			c-0.21,0.72-0.41,1.44-0.55,2.19c-0.16,0.76-0.28,1.52-0.35,2.29c-0.09,0.8-0.14,1.59-0.14,2.37V349.9z"/>
	</g>
	<g>
		<path class="st4" d="M1474.35,307.81h-18.99v-1.58h18.99c0.73,0,1.49-0.04,2.39-0.12c0.75-0.07,1.52-0.18,2.27-0.34
			c0.84-0.18,1.57-0.37,2.21-0.58c0.75-0.22,1.5-0.51,2.15-0.77c0.67-0.29,1.35-0.62,2-0.97c0.69-0.4,1.33-0.79,1.92-1.18
			c0.66-0.46,1.25-0.89,1.78-1.32c0.53-0.46,1.1-0.96,1.63-1.49c0.55-0.55,1.05-1.1,1.47-1.63c0.45-0.52,0.88-1.09,1.35-1.78
			c0.42-0.6,0.78-1.24,1.17-1.91c0.31-0.57,0.62-1.24,0.96-2.02c0.26-0.58,0.51-1.25,0.79-2.1c0.2-0.72,0.39-1.47,0.55-2.22
			c0.16-0.77,0.27-1.52,0.34-2.29c0.08-0.67,0.12-1.4,0.12-2.37v-18.99h1.58v18.99c0,0.7-0.01,1.62-0.12,2.53
			c-0.07,0.81-0.19,1.62-0.37,2.46c-0.17,0.78-0.37,1.57-0.59,2.34c-0.3,0.94-0.57,1.65-0.85,2.28c-0.35,0.82-0.69,1.52-1.03,2.15
			c-0.39,0.69-0.79,1.39-1.24,2.04c-0.49,0.74-0.97,1.37-1.44,1.91c-0.44,0.55-0.97,1.14-1.56,1.73c-0.57,0.57-1.16,1.09-1.73,1.59
			c-0.59,0.47-1.21,0.93-1.91,1.42c-0.63,0.42-1.3,0.83-2.04,1.25c-0.71,0.38-1.42,0.72-2.16,1.04c-0.7,0.28-1.49,0.59-2.29,0.82
			c-0.68,0.22-1.45,0.42-2.35,0.61c-0.81,0.17-1.64,0.3-2.46,0.37C1475.93,307.77,1475.12,307.81,1474.35,307.81z"/>
	</g>
	<g>
		<path class="st4" d="M1541.11,307.81h-18.99c-0.75,0-1.57-0.04-2.51-0.12c-0.85-0.08-1.7-0.21-2.46-0.37
			c-0.89-0.19-1.67-0.39-2.37-0.62c-0.77-0.22-1.57-0.53-2.25-0.81c-0.75-0.33-1.47-0.67-2.16-1.04c-0.65-0.36-1.29-0.75-2.05-1.26
			c-0.71-0.49-1.33-0.95-1.9-1.4c-0.6-0.52-1.19-1.04-1.76-1.61c-0.59-0.59-1.12-1.18-1.59-1.76c-0.45-0.52-0.92-1.14-1.43-1.9
			c-0.44-0.64-0.84-1.33-1.22-2c-0.35-0.65-0.68-1.35-1.04-2.18c-0.28-0.62-0.55-1.34-0.84-2.24c-0.22-0.8-0.45-1.59-0.6-2.39
			c-0.17-0.81-0.3-1.63-0.37-2.46c-0.1-0.79-0.15-1.64-0.15-2.51v-15.43h1.58v15.43c0,0.8,0.05,1.59,0.14,2.34
			c0.07,0.8,0.18,1.55,0.35,2.32c0.14,0.75,0.34,1.47,0.56,2.24c0.27,0.82,0.51,1.49,0.77,2.06c0.35,0.79,0.66,1.46,0.98,2.05
			c0.37,0.65,0.74,1.29,1.15,1.88c0.47,0.71,0.9,1.28,1.33,1.77c0.45,0.56,0.94,1.11,1.49,1.66c0.53,0.53,1.11,1.03,1.66,1.52
			c0.51,0.41,1.1,0.84,1.77,1.31c0.71,0.47,1.32,0.85,1.91,1.18c0.64,0.34,1.32,0.67,2.01,0.97c0.63,0.25,1.38,0.54,2.1,0.75
			c0.67,0.22,1.4,0.4,2.24,0.58c0.71,0.15,1.49,0.27,2.27,0.34c0.88,0.08,1.66,0.12,2.36,0.12h18.99V307.81z"/>
	</g>
</g>
<g>
	<g>
		<path class="st4" d="M159.6,483.03c-0.85,0-1.7,0.05-2.56,0.13c-0.83,0.1-1.68,0.23-2.48,0.4c-0.83,0.15-1.63,0.35-2.4,0.6
			c-0.78,0.25-1.55,0.53-2.3,0.85c-0.75,0.3-1.48,0.68-2.18,1.05c-0.73,0.38-1.4,0.8-2.08,1.25c-0.65,0.45-1.3,0.93-1.93,1.45
			c-0.6,0.5-1.2,1.03-1.78,1.6c-0.55,0.58-1.1,1.15-1.6,1.78c-0.53,0.63-1,1.28-1.45,1.93c-0.45,0.68-0.85,1.35-1.25,2.08
			c-0.38,0.7-0.73,1.43-1.05,2.18c-0.33,0.75-0.6,1.53-0.85,2.3c-0.22,0.78-0.45,1.58-0.6,2.4c-0.18,0.8-0.3,1.63-0.38,2.48
			c-0.1,0.85-0.15,1.7-0.15,2.55c0-0.85-0.03-1.7-0.13-2.55c-0.07-0.85-0.2-1.68-0.38-2.48c-0.18-0.83-0.38-1.63-0.6-2.4
			c-0.25-0.78-0.53-1.55-0.85-2.3c-0.33-0.75-0.68-1.48-1.05-2.18c-0.4-0.73-0.8-1.4-1.25-2.08c-0.45-0.65-0.93-1.3-1.45-1.93
			c-0.5-0.63-1.05-1.2-1.6-1.78c-0.58-0.58-1.18-1.1-1.78-1.6c-0.63-0.53-1.28-1-1.93-1.45c-0.68-0.45-1.38-0.88-2.08-1.25
			c-0.7-0.38-1.43-0.75-2.18-1.05c-0.75-0.33-1.53-0.6-2.3-0.85c-0.78-0.25-1.58-0.45-2.4-0.6c-0.83-0.18-1.65-0.3-2.48-0.4
			c-0.85-0.08-1.7-0.13-2.58-0.13c0.88,0,1.73-0.05,2.58-0.12c0.83-0.08,1.65-0.2,2.48-0.38c0.83-0.18,1.63-0.38,2.4-0.63
			c0.78-0.23,1.55-0.53,2.3-0.83c0.75-0.33,1.48-0.68,2.18-1.05c0.7-0.4,1.4-0.83,2.08-1.28c0.65-0.45,1.3-0.93,1.93-1.43
			c0.6-0.53,1.2-1.05,1.78-1.63c0.55-0.55,1.1-1.15,1.6-1.78c0.53-0.6,1-1.25,1.45-1.93c0.45-0.65,0.85-1.35,1.25-2.05
			c0.38-0.7,0.73-1.45,1.05-2.2c0.33-0.73,0.6-1.5,0.85-2.28c0.23-0.8,0.43-1.6,0.6-2.4c0.17-0.83,0.3-1.65,0.38-2.5
			c0.1-0.83,0.13-1.68,0.13-2.55c0,0.88,0.05,1.73,0.15,2.55c0.08,0.85,0.2,1.68,0.38,2.5c0.15,0.8,0.38,1.6,0.6,2.4
			c0.25,0.78,0.53,1.55,0.85,2.28c0.33,0.75,0.67,1.5,1.05,2.2c0.4,0.7,0.8,1.4,1.25,2.05c0.45,0.68,0.93,1.33,1.45,1.93
			c0.5,0.63,1.05,1.23,1.6,1.78c0.58,0.58,1.18,1.1,1.78,1.63c0.63,0.5,1.28,0.98,1.93,1.43c0.68,0.45,1.35,0.88,2.08,1.28
			c0.7,0.38,1.43,0.73,2.18,1.05c0.75,0.3,1.53,0.6,2.3,0.83c0.78,0.25,1.58,0.45,2.4,0.63c0.8,0.18,1.65,0.3,2.48,0.38
			C157.9,482.98,158.75,483.03,159.6,483.03z"/>
	</g>
	<g>
		<path class="st4" d="M135.39,527.98h-1.65v-19.91c0-1-0.04-1.76-0.12-2.46c-0.07-0.83-0.19-1.63-0.36-2.4
			c-0.17-0.81-0.37-1.6-0.59-2.35c-0.28-0.86-0.54-1.56-0.82-2.21c-0.31-0.73-0.66-1.44-1.02-2.12c-0.42-0.76-0.81-1.4-1.21-2.01
			c-0.51-0.74-0.96-1.33-1.4-1.86c-0.49-0.61-1.01-1.16-1.57-1.74c-0.47-0.47-1.01-0.96-1.71-1.54c-0.53-0.44-1.12-0.89-1.87-1.41
			c-0.67-0.45-1.35-0.85-2-1.2c-0.62-0.33-1.35-0.72-2.09-1.01c-0.66-0.29-1.37-0.55-2.25-0.83c-0.74-0.24-1.51-0.43-2.3-0.57
			c-0.74-0.16-1.53-0.28-2.43-0.39c-0.91-0.08-1.71-0.12-2.48-0.12H89.61v-1.65h19.91c0.82,0,1.66,0.04,2.65,0.13
			c0.98,0.12,1.81,0.25,2.58,0.42c0.84,0.15,1.68,0.36,2.49,0.62c0.93,0.3,1.69,0.58,2.38,0.88c0.8,0.32,1.58,0.73,2.24,1.08
			c0.7,0.37,1.42,0.81,2.15,1.29c0.81,0.56,1.44,1.03,2,1.51c0.73,0.61,1.32,1.14,1.83,1.65c0.57,0.59,1.14,1.19,1.66,1.85
			c0.46,0.55,0.94,1.18,1.49,1.97c0.44,0.66,0.85,1.34,1.3,2.15c0.39,0.73,0.75,1.48,1.09,2.25c0.3,0.69,0.58,1.45,0.88,2.38
			c0.24,0.82,0.44,1.64,0.62,2.49c0.18,0.83,0.31,1.7,0.39,2.58c0.09,0.75,0.13,1.56,0.13,2.63V527.98z"/>
	</g>
	<g>
		<path class="st4" d="M135.39,527.98h-1.65v-19.91c0-0.88,0.05-1.77,0.16-2.65c0.08-0.86,0.21-1.73,0.39-2.56
			c0.15-0.83,0.39-1.67,0.61-2.46c0.31-0.95,0.59-1.71,0.89-2.4c0.33-0.77,0.7-1.52,1.08-2.24c0.45-0.82,0.86-1.5,1.29-2.15
			c0.56-0.8,1.03-1.44,1.51-2c0.51-0.64,1.08-1.24,1.64-1.82c0.53-0.53,1.11-1.05,1.85-1.67c0.56-0.47,1.19-0.95,1.99-1.5
			c0.58-0.39,1.34-0.88,2.17-1.31c0.65-0.35,1.43-0.76,2.25-1.08c0.67-0.29,1.43-0.57,2.36-0.87c0.81-0.26,1.65-0.47,2.51-0.63
			c0.7-0.15,1.51-0.28,2.53-0.41c1-0.09,1.86-0.13,2.65-0.13h19.91v1.65H159.6c-0.74,0-1.55,0.04-2.48,0.12
			c-0.94,0.11-1.7,0.24-2.37,0.38c-0.82,0.15-1.59,0.34-2.33,0.58c-0.88,0.28-1.58,0.54-2.23,0.82c-0.76,0.31-1.49,0.69-2.12,1.02
			c-0.61,0.32-1.21,0.68-2.01,1.21c-0.74,0.51-1.33,0.96-1.85,1.4c-0.7,0.58-1.25,1.08-1.73,1.55c-0.54,0.57-1.06,1.11-1.54,1.71
			c-0.45,0.54-0.9,1.13-1.42,1.88c-0.4,0.59-0.78,1.23-1.21,2.01c-0.36,0.67-0.7,1.38-1.02,2.11c-0.28,0.64-0.54,1.35-0.82,2.23
			c-0.22,0.75-0.43,1.51-0.57,2.3c-0.17,0.79-0.29,1.59-0.37,2.4c-0.1,0.84-0.15,1.67-0.15,2.48V527.98z"/>
	</g>
	<g>
		<path class="st4" d="M109.52,483.86H89.61v-1.65h19.91c0.77,0,1.56-0.04,2.51-0.12c0.79-0.07,1.59-0.19,2.38-0.36
			c0.88-0.19,1.64-0.38,2.32-0.6c0.79-0.23,1.57-0.54,2.25-0.81c0.7-0.31,1.42-0.65,2.1-1.01c0.73-0.42,1.39-0.82,2.01-1.24
			c0.69-0.48,1.31-0.94,1.87-1.39c0.55-0.48,1.15-1.01,1.71-1.57c0.58-0.58,1.1-1.15,1.54-1.71c0.47-0.54,0.92-1.14,1.41-1.87
			c0.44-0.63,0.82-1.3,1.22-2c0.32-0.6,0.65-1.3,1.01-2.12c0.27-0.61,0.53-1.31,0.82-2.2c0.21-0.75,0.41-1.54,0.58-2.33
			c0.17-0.8,0.29-1.59,0.36-2.4c0.08-0.71,0.12-1.46,0.12-2.48v-19.91h1.65V458c0,0.73-0.01,1.69-0.13,2.65
			c-0.08,0.85-0.2,1.7-0.39,2.57c-0.18,0.82-0.39,1.64-0.61,2.46c-0.32,0.98-0.6,1.73-0.89,2.39c-0.37,0.86-0.72,1.6-1.08,2.26
			c-0.41,0.72-0.83,1.45-1.3,2.13c-0.52,0.78-1.01,1.44-1.51,2c-0.46,0.58-1.02,1.2-1.64,1.82c-0.6,0.6-1.22,1.14-1.82,1.67
			c-0.62,0.5-1.27,0.98-2,1.48c-0.66,0.44-1.36,0.87-2.14,1.32c-0.74,0.4-1.49,0.76-2.26,1.09c-0.73,0.29-1.57,0.62-2.4,0.86
			c-0.71,0.23-1.52,0.44-2.46,0.64c-0.85,0.18-1.72,0.31-2.58,0.39C111.18,483.82,110.34,483.86,109.52,483.86z"/>
	</g>
	<g>
		<path class="st4" d="M179.5,483.86H159.6c-0.79,0-1.65-0.04-2.63-0.13c-0.89-0.08-1.78-0.22-2.58-0.39
			c-0.93-0.2-1.75-0.41-2.48-0.65c-0.81-0.24-1.64-0.56-2.36-0.85c-0.79-0.34-1.54-0.71-2.26-1.09c-0.68-0.37-1.36-0.79-2.15-1.32
			c-0.75-0.52-1.39-1-1.99-1.47c-0.63-0.55-1.25-1.09-1.85-1.69c-0.62-0.62-1.18-1.24-1.66-1.85c-0.47-0.54-0.97-1.2-1.49-1.99
			c-0.46-0.67-0.88-1.4-1.28-2.1c-0.36-0.68-0.72-1.42-1.09-2.28c-0.29-0.65-0.57-1.4-0.88-2.35c-0.24-0.84-0.47-1.67-0.63-2.51
			c-0.18-0.85-0.31-1.7-0.39-2.58c-0.1-0.83-0.15-1.72-0.15-2.63v-16.17h1.65V458c0,0.84,0.05,1.67,0.14,2.45
			c0.07,0.84,0.19,1.63,0.36,2.43c0.15,0.78,0.36,1.55,0.59,2.35c0.28,0.86,0.54,1.56,0.81,2.16c0.36,0.83,0.7,1.53,1.03,2.15
			c0.39,0.69,0.77,1.35,1.2,1.97c0.49,0.74,0.95,1.34,1.39,1.86c0.47,0.59,0.99,1.16,1.56,1.74c0.56,0.56,1.16,1.08,1.74,1.59
			c0.53,0.43,1.15,0.88,1.85,1.37c0.74,0.49,1.38,0.89,2.01,1.23c0.67,0.36,1.38,0.7,2.11,1.02c0.66,0.26,1.44,0.57,2.2,0.79
			c0.7,0.23,1.46,0.42,2.35,0.61c0.74,0.16,1.56,0.29,2.38,0.36c0.93,0.08,1.74,0.12,2.48,0.12h19.91V483.86z"/>
	</g>
</g>
<g>
	<g>
		<path class="st4" d="M514.85,345.41c-0.73,0-1.45,0.04-2.18,0.11c-0.7,0.09-1.43,0.19-2.12,0.34c-0.71,0.13-1.39,0.3-2.05,0.51
			c-0.66,0.21-1.33,0.45-1.97,0.73c-0.64,0.26-1.26,0.58-1.86,0.9c-0.62,0.32-1.2,0.68-1.78,1.07c-0.56,0.39-1.11,0.79-1.65,1.24
			c-0.51,0.43-1.03,0.88-1.52,1.37c-0.47,0.49-0.94,0.98-1.37,1.52c-0.45,0.53-0.86,1.09-1.24,1.65c-0.39,0.58-0.73,1.15-1.07,1.77
			c-0.32,0.6-0.62,1.22-0.9,1.86c-0.28,0.64-0.51,1.3-0.73,1.97c-0.19,0.66-0.39,1.35-0.51,2.05c-0.15,0.68-0.26,1.39-0.32,2.12
			c-0.09,0.73-0.13,1.45-0.13,2.18c0-0.73-0.02-1.45-0.11-2.18c-0.06-0.73-0.17-1.43-0.32-2.12c-0.15-0.71-0.32-1.39-0.51-2.05
			c-0.21-0.66-0.45-1.33-0.73-1.97c-0.28-0.64-0.58-1.26-0.9-1.86c-0.34-0.62-0.69-1.2-1.07-1.77c-0.39-0.56-0.79-1.11-1.24-1.65
			c-0.43-0.53-0.9-1.03-1.37-1.52c-0.49-0.49-1-0.94-1.52-1.37c-0.53-0.45-1.09-0.86-1.65-1.24c-0.58-0.39-1.18-0.75-1.78-1.07
			c-0.6-0.32-1.22-0.64-1.86-0.9c-0.64-0.28-1.3-0.51-1.97-0.73c-0.66-0.21-1.35-0.39-2.05-0.51c-0.7-0.15-1.41-0.26-2.12-0.34
			c-0.73-0.06-1.45-0.11-2.2-0.11c0.75,0,1.48-0.04,2.2-0.11c0.71-0.06,1.41-0.17,2.12-0.32c0.71-0.15,1.39-0.32,2.05-0.53
			c0.66-0.19,1.33-0.45,1.97-0.71c0.64-0.28,1.26-0.58,1.86-0.9c0.6-0.34,1.2-0.71,1.78-1.09c0.56-0.38,1.11-0.79,1.65-1.22
			c0.51-0.45,1.03-0.9,1.52-1.39c0.47-0.47,0.94-0.98,1.37-1.52c0.45-0.51,0.86-1.07,1.24-1.65c0.38-0.56,0.73-1.16,1.07-1.75
			c0.32-0.6,0.62-1.24,0.9-1.88c0.28-0.62,0.51-1.28,0.73-1.95c0.19-0.68,0.36-1.37,0.51-2.05c0.15-0.71,0.26-1.41,0.32-2.14
			c0.09-0.71,0.11-1.43,0.11-2.18c0,0.75,0.04,1.48,0.13,2.18c0.06,0.73,0.17,1.43,0.32,2.14c0.13,0.68,0.32,1.37,0.51,2.05
			c0.21,0.66,0.45,1.33,0.73,1.95c0.28,0.64,0.58,1.28,0.9,1.88c0.34,0.6,0.68,1.2,1.07,1.75c0.38,0.58,0.79,1.13,1.24,1.65
			c0.43,0.53,0.9,1.05,1.37,1.52c0.49,0.49,1.01,0.94,1.52,1.39c0.53,0.43,1.09,0.83,1.65,1.22c0.58,0.39,1.16,0.75,1.78,1.09
			c0.6,0.32,1.22,0.62,1.86,0.9c0.64,0.26,1.3,0.51,1.97,0.71c0.66,0.21,1.35,0.39,2.05,0.53c0.68,0.15,1.41,0.26,2.12,0.32
			C513.4,345.37,514.13,345.41,514.85,345.41z"/>
	</g>
	<g>
		<path class="st4" d="M494.17,383.81h-1.41v-17c0-0.85-0.03-1.5-0.1-2.1c-0.06-0.71-0.17-1.4-0.31-2.05
			c-0.15-0.69-0.31-1.36-0.5-2.01c-0.24-0.73-0.46-1.34-0.7-1.88c-0.27-0.62-0.56-1.23-0.87-1.81c-0.36-0.65-0.69-1.2-1.03-1.72
			c-0.44-0.63-0.82-1.14-1.19-1.58c-0.42-0.52-0.87-0.99-1.34-1.48c-0.4-0.4-0.87-0.82-1.46-1.31c-0.45-0.38-0.96-0.76-1.6-1.2
			c-0.57-0.38-1.15-0.73-1.71-1.03c-0.53-0.29-1.16-0.61-1.79-0.86c-0.57-0.25-1.17-0.47-1.92-0.71c-0.63-0.2-1.29-0.37-1.96-0.49
			c-0.63-0.13-1.31-0.24-2.08-0.34c-0.78-0.07-1.46-0.1-2.12-0.1h-17v-1.41h17c0.7,0,1.42,0.03,2.26,0.11
			c0.84,0.1,1.55,0.22,2.2,0.36c0.71,0.13,1.44,0.31,2.12,0.53c0.79,0.26,1.44,0.5,2.03,0.75c0.68,0.27,1.35,0.62,1.91,0.92
			c0.6,0.32,1.21,0.69,1.83,1.1c0.69,0.48,1.23,0.88,1.71,1.29c0.63,0.52,1.12,0.97,1.56,1.41c0.48,0.51,0.97,1.02,1.42,1.58
			c0.39,0.47,0.8,1.01,1.27,1.69c0.37,0.56,0.72,1.14,1.11,1.84c0.33,0.62,0.64,1.27,0.93,1.92c0.26,0.59,0.49,1.24,0.75,2.03
			c0.2,0.7,0.38,1.4,0.53,2.12c0.15,0.71,0.27,1.45,0.33,2.2c0.08,0.64,0.11,1.33,0.11,2.24V383.81z"/>
	</g>
	<g>
		<path class="st4" d="M494.17,383.81h-1.41v-17c0-0.75,0.04-1.51,0.13-2.26c0.06-0.73,0.18-1.48,0.33-2.19
			c0.13-0.71,0.33-1.43,0.53-2.1c0.26-0.82,0.5-1.46,0.76-2.05c0.28-0.66,0.59-1.3,0.92-1.91c0.39-0.7,0.74-1.28,1.1-1.83
			c0.48-0.69,0.88-1.23,1.29-1.71c0.44-0.55,0.93-1.06,1.4-1.55c0.45-0.45,0.95-0.9,1.58-1.42c0.48-0.4,1.02-0.81,1.7-1.28
			c0.49-0.33,1.14-0.75,1.85-1.12c0.56-0.3,1.22-0.65,1.92-0.93c0.57-0.25,1.22-0.49,2.01-0.74c0.69-0.22,1.41-0.4,2.14-0.54
			c0.6-0.13,1.29-0.24,2.16-0.35c0.86-0.08,1.59-0.11,2.27-0.11h17v1.41h-17c-0.63,0-1.33,0.03-2.12,0.1
			c-0.8,0.1-1.45,0.2-2.03,0.33c-0.7,0.13-1.36,0.29-1.99,0.5c-0.75,0.24-1.35,0.47-1.9,0.7c-0.65,0.26-1.28,0.59-1.81,0.87
			c-0.52,0.27-1.03,0.58-1.72,1.03c-0.63,0.44-1.14,0.82-1.58,1.19c-0.6,0.5-1.07,0.92-1.47,1.33c-0.46,0.48-0.91,0.95-1.32,1.46
			c-0.39,0.46-0.77,0.97-1.21,1.61c-0.34,0.51-0.67,1.05-1.03,1.71c-0.31,0.57-0.6,1.18-0.87,1.8c-0.24,0.55-0.46,1.15-0.7,1.9
			c-0.19,0.64-0.37,1.29-0.49,1.96c-0.15,0.68-0.25,1.36-0.31,2.05c-0.08,0.72-0.13,1.42-0.13,2.12V383.81z"/>
	</g>
	<g>
		<path class="st4" d="M472.08,346.12h-17v-1.41h17c0.65,0,1.33-0.03,2.14-0.1c0.67-0.06,1.36-0.16,2.03-0.31
			c0.75-0.16,1.4-0.33,1.98-0.52c0.67-0.2,1.34-0.46,1.92-0.69c0.6-0.26,1.21-0.55,1.79-0.86c0.62-0.35,1.19-0.7,1.72-1.06
			c0.59-0.41,1.12-0.8,1.6-1.18c0.47-0.41,0.98-0.86,1.46-1.34c0.49-0.49,0.94-0.98,1.32-1.46c0.4-0.46,0.79-0.98,1.2-1.6
			c0.37-0.54,0.7-1.11,1.04-1.71c0.27-0.51,0.56-1.11,0.86-1.81c0.23-0.52,0.46-1.12,0.7-1.88c0.18-0.64,0.35-1.32,0.5-1.99
			c0.14-0.69,0.25-1.36,0.31-2.05c0.07-0.6,0.1-1.25,0.1-2.12v-17h1.41v17c0,0.62-0.01,1.45-0.11,2.27
			c-0.06,0.73-0.17,1.45-0.33,2.2c-0.15,0.7-0.33,1.4-0.52,2.1c-0.27,0.84-0.51,1.48-0.76,2.04c-0.32,0.73-0.62,1.36-0.92,1.93
			c-0.35,0.62-0.71,1.24-1.11,1.82c-0.44,0.66-0.87,1.23-1.29,1.71c-0.39,0.49-0.87,1.02-1.4,1.55c-0.51,0.51-1.04,0.97-1.55,1.42
			c-0.53,0.42-1.08,0.83-1.71,1.27c-0.57,0.38-1.16,0.74-1.83,1.12c-0.63,0.34-1.28,0.65-1.93,0.93c-0.63,0.25-1.34,0.53-2.05,0.74
			c-0.61,0.2-1.3,0.38-2.1,0.55c-0.73,0.15-1.47,0.27-2.2,0.33C473.5,346.09,472.78,346.12,472.08,346.12z"/>
	</g>
	<g>
		<path class="st4" d="M531.86,346.12h-17c-0.67,0-1.41-0.04-2.24-0.11c-0.76-0.07-1.52-0.18-2.21-0.33
			c-0.8-0.17-1.49-0.35-2.12-0.55c-0.69-0.2-1.4-0.48-2.01-0.72c-0.67-0.29-1.32-0.6-1.93-0.93c-0.58-0.32-1.16-0.68-1.83-1.13
			c-0.64-0.44-1.19-0.85-1.7-1.26c-0.54-0.47-1.07-0.93-1.58-1.44c-0.53-0.53-1.01-1.06-1.42-1.58c-0.4-0.46-0.83-1.02-1.28-1.7
			c-0.4-0.57-0.75-1.19-1.1-1.8c-0.31-0.58-0.61-1.21-0.93-1.95c-0.25-0.55-0.49-1.2-0.75-2.01c-0.2-0.71-0.4-1.42-0.53-2.14
			c-0.16-0.73-0.26-1.46-0.33-2.21c-0.09-0.71-0.13-1.47-0.13-2.24v-13.82h1.41v13.82c0,0.72,0.04,1.42,0.12,2.1
			c0.06,0.72,0.16,1.39,0.31,2.08c0.13,0.67,0.31,1.32,0.5,2.01c0.24,0.74,0.46,1.33,0.69,1.85c0.31,0.71,0.59,1.31,0.88,1.84
			c0.33,0.59,0.66,1.15,1.03,1.69c0.42,0.63,0.81,1.15,1.19,1.58c0.4,0.5,0.84,0.99,1.34,1.48c0.48,0.48,0.99,0.93,1.48,1.36
			c0.46,0.36,0.98,0.75,1.58,1.17c0.63,0.42,1.18,0.76,1.71,1.05c0.57,0.31,1.18,0.6,1.8,0.87c0.56,0.22,1.23,0.49,1.88,0.68
			c0.6,0.19,1.25,0.36,2,0.52c0.63,0.14,1.34,0.24,2.04,0.31c0.79,0.07,1.48,0.1,2.12,0.1h17V346.12z"/>
	</g>
</g>
</svg>
