<?xml version="1.0" encoding="utf-8"?>
<!-- Generator: Adobe Illustrator 28.1.0, SVG Export Plug-In . SVG Version: 6.00 Build 0)  -->
<svg version="1.1" id="Layer_1" xmlns="http://www.w3.org/2000/svg" xmlns:xlink="http://www.w3.org/1999/xlink" x="0px" y="0px"
	 viewBox="0 0 1920 1080" style="enable-background:new 0 0 1920 1080;" xml:space="preserve">
<style type="text/css">
	.st0{fill:#FFFFFF;}
	.st1{fill:#02205F;}
	.st2{fill:#00F0C0;}
	.st3{enable-background:new    ;}
</style>
<g>
	<path class="st0" d="M1385.39,631.62H549.32c-53.71,0-97.26-43.54-97.26-97.26l0,0c0-53.71,43.54-97.26,97.26-97.26h836.06
		c53.71,0,97.26,43.54,97.26,97.26l0,0C1482.65,588.08,1439.1,631.62,1385.39,631.62z"/>
	<path class="st1" d="M1385.39,633.1H549.32c-54.44,0-98.73-44.29-98.73-98.73s44.29-98.74,98.73-98.74h836.06
		c54.44,0,98.74,44.29,98.74,98.73C1484.12,588.81,1439.83,633.1,1385.39,633.1z M549.32,438.58c-52.81,0-95.78,42.97-95.78,95.78
		s42.97,95.78,95.78,95.78h836.06c52.82,0,95.79-42.97,95.79-95.78s-42.97-95.78-95.79-95.78H549.32z"/>
</g>
<g>
	<path class="st2" d="M1375.37,617.37H539.31c-53.71,0-97.26-43.54-97.26-97.26l0,0c0-53.71,43.54-97.26,97.26-97.26h836.06
		c53.71,0,97.26,43.54,97.26,97.26l0,0C1472.63,573.83,1429.09,617.37,1375.37,617.37z"/>
	<path class="st1" d="M1375.37,618.85H539.31c-54.44,0-98.74-44.29-98.74-98.73s44.29-98.74,98.74-98.74h836.06
		c54.44,0,98.73,44.29,98.73,98.74C1474.11,574.56,1429.81,618.85,1375.37,618.85z M539.31,424.33c-52.82,0-95.78,42.97-95.78,95.78
		s42.97,95.78,95.78,95.78h836.06c52.82,0,95.78-42.97,95.78-95.78s-42.97-95.78-95.78-95.78H539.31z"/>
</g>
<g class="st3">
	<path class="st1" d="M541.22,536.1h29.3v14.49h-44.44v-76.82h15.14V536.1z"/>
	<path class="st1" d="M603.44,552.12c-8.12,0-15.03-2.74-20.63-8.34s-8.34-12.51-8.34-20.63s2.74-14.92,8.34-20.52
		s12.51-8.45,20.63-8.45c8.12,0,15.03,2.85,20.63,8.45s8.45,12.4,8.45,20.52s-2.85,15.04-8.45,20.63S611.56,552.12,603.44,552.12z
		 M603.44,538.29c4.28,0,7.79-1.43,10.65-4.28c2.85-2.85,4.28-6.47,4.28-10.86s-1.43-8.01-4.28-10.86
		c-2.85-2.85-6.37-4.28-10.65-4.28s-7.79,1.43-10.65,4.28c-2.74,2.85-4.17,6.47-4.17,10.86s1.43,8.01,4.17,10.86
		C595.65,536.86,599.16,538.29,603.44,538.29z"/>
	<path class="st1" d="M672.68,509.32h-12.4v22.83c0,5.93,4.28,6.04,12.4,5.6v12.84c-19.42,2.2-26.56-3.4-26.56-18.44v-22.83h-9.55
		v-13.61h9.55v-11.08l14.16-4.28v15.36h12.4V509.32z"/>
	<path class="st1" d="M692.98,528.96c1.87,6.91,7.02,10.32,15.47,10.32c5.38,0,9.55-1.87,12.29-5.49l11.41,6.58
		c-5.38,7.79-13.39,11.74-23.92,11.74c-9.11,0-16.35-2.74-21.84-8.23s-8.23-12.4-8.23-20.74c0-8.23,2.74-15.14,8.12-20.63
		c5.38-5.6,12.4-8.34,20.85-8.34c8.01,0,14.71,2.74,19.86,8.34c5.27,5.6,7.9,12.4,7.9,20.63c0,1.87-0.22,3.73-0.55,5.82H692.98z
		 M720.75,517.99c-1.65-7.46-7.13-11.08-13.61-11.08c-7.57,0-12.73,4.06-14.38,11.08H720.75z"/>
	<path class="st1" d="M758.94,505.15c2.63-7.02,9.22-10.54,16.68-10.54v15.8c-4.28-0.55-8.23,0.33-11.63,2.63
		c-3.4,2.3-5.05,6.04-5.05,11.3v26.23h-14.16v-54.87h14.16V505.15z"/>
	<path class="st1" d="M793.72,528.96c1.87,6.91,7.02,10.32,15.47,10.32c5.38,0,9.55-1.87,12.29-5.49l11.41,6.58
		c-5.38,7.79-13.39,11.74-23.92,11.74c-9.11,0-16.35-2.74-21.84-8.23s-8.23-12.4-8.23-20.74c0-8.23,2.74-15.14,8.12-20.63
		c5.38-5.6,12.4-8.34,20.85-8.34c8.01,0,14.71,2.74,19.86,8.34c5.27,5.6,7.9,12.4,7.9,20.63c0,1.87-0.22,3.73-0.55,5.82H793.72z
		 M821.48,517.99c-1.65-7.46-7.13-11.08-13.61-11.08c-7.57,0-12.73,4.06-14.38,11.08H821.48z"/>
	<path class="st1" d="M879.1,495.71h15.14l-19.97,54.87c-5.71,15.8-14.92,22.72-28.97,21.95v-13.17
		c7.57,0.11,11.74-3.07,14.38-10.54l-22.5-53.12h15.47l14.27,36.87L879.1,495.71z"/>
	<path class="st1" d="M940.44,495.71h14.16v54.87h-14.16v-6.47c-4.28,5.38-10.21,8.01-17.89,8.01c-7.35,0-13.61-2.74-18.88-8.34
		c-5.16-5.6-7.79-12.51-7.79-20.63s2.63-14.92,7.79-20.52c5.27-5.6,11.52-8.45,18.88-8.45c7.68,0,13.61,2.63,17.89,8.01V495.71z
		 M925.19,538.62c4.39,0,8.01-1.43,10.86-4.28c2.96-2.96,4.39-6.69,4.39-11.19c0-4.5-1.43-8.23-4.39-11.08
		c-2.85-2.96-6.47-4.39-10.86-4.39s-8.01,1.43-10.86,4.39c-2.85,2.85-4.28,6.58-4.28,11.08c0,4.5,1.43,8.23,4.28,11.19
		C917.17,537.19,920.8,538.62,925.19,538.62z"/>
	<path class="st1" d="M1003.21,495.71h15.14l-19.97,54.87c-5.71,15.8-14.92,22.72-28.97,21.95v-13.17
		c7.57,0.11,11.74-3.07,14.38-10.54l-22.5-53.12h15.47l14.27,36.87L1003.21,495.71z"/>
	<path class="st1" d="M1064.55,495.71h14.16v54.87h-14.16v-6.47c-4.28,5.38-10.21,8.01-17.89,8.01c-7.35,0-13.61-2.74-18.88-8.34
		c-5.16-5.6-7.79-12.51-7.79-20.63s2.63-14.92,7.79-20.52c5.27-5.6,11.52-8.45,18.88-8.45c7.68,0,13.61,2.63,17.89,8.01V495.71z
		 M1049.3,538.62c4.39,0,8.01-1.43,10.86-4.28c2.96-2.96,4.39-6.69,4.39-11.19c0-4.5-1.43-8.23-4.39-11.08
		c-2.85-2.96-6.47-4.39-10.86-4.39s-8.01,1.43-10.86,4.39c-2.85,2.85-4.28,6.58-4.28,11.08c0,4.5,1.43,8.23,4.28,11.19
		C1041.29,537.19,1044.91,538.62,1049.3,538.62z"/>
	<path class="st1" d="M1169.79,502.62c5.27,5.6,7.9,12.4,7.9,20.52s-2.63,15.04-7.9,20.63c-5.16,5.6-11.52,8.34-18.88,8.34
		c-7.68,0-13.61-2.63-17.78-8.01v6.47h-14.16v-76.82h14.16v28.42c4.17-5.38,10.1-8.01,17.78-8.01
		C1158.26,494.17,1164.63,497.03,1169.79,502.62z M1148.28,538.62c4.39,0,8.01-1.43,10.86-4.28c2.96-2.96,4.39-6.69,4.39-11.19
		c0-4.5-1.43-8.23-4.39-11.08c-2.85-2.96-6.47-4.39-10.86-4.39s-8.01,1.43-10.87,4.39c-2.85,2.85-4.28,6.58-4.28,11.08
		c0,4.5,1.43,8.23,4.28,11.19C1140.27,537.19,1143.89,538.62,1148.28,538.62z"/>
	<path class="st1" d="M1229.37,495.71h14.16v54.87h-14.16v-6.47c-4.28,5.38-10.21,8.01-17.89,8.01c-7.35,0-13.61-2.74-18.88-8.34
		c-5.16-5.6-7.79-12.51-7.79-20.63s2.63-14.92,7.79-20.52c5.27-5.6,11.52-8.45,18.88-8.45c7.68,0,13.61,2.63,17.89,8.01V495.71z
		 M1214.12,538.62c4.39,0,8.01-1.43,10.86-4.28c2.96-2.96,4.39-6.69,4.39-11.19c0-4.5-1.43-8.23-4.39-11.08
		c-2.85-2.96-6.47-4.39-10.86-4.39s-8.01,1.43-10.86,4.39c-2.85,2.85-4.28,6.58-4.28,11.08c0,4.5,1.43,8.23,4.28,11.19
		C1206.11,537.19,1209.73,538.62,1214.12,538.62z"/>
	<path class="st1" d="M1282.04,551.46v4.17c4.28,0.99,7.68,3.84,7.68,8.56c0,7.68-8.01,11.08-24.14,10.1v-9.99
		c7.9,0.55,11.85-0.22,11.85-2.2c0-1.43-2.3-2.41-6.91-2.74v-7.57c-8.78-1.1-14.92-5.38-18.33-12.73l12.29-6.91
		c1.65,4.72,5.16,7.13,10.75,7.13c5.05,0,7.57-1.54,7.57-4.72c0-2.96-4.39-4.61-9.99-6.04c-8.12-2.08-18.33-5.49-18.33-16.9
		c0-5.38,1.98-9.66,5.93-12.73c4.06-3.18,9-4.72,14.92-4.72c8.89,0,16.57,4.17,20.85,11.63l-12.07,6.58
		c-1.76-3.73-4.72-5.6-8.78-5.6c-3.62,0-6.36,1.76-6.36,4.5c0,2.96,4.39,4.61,9.99,6.04c8.01,1.65,18.44,5.49,18.33,17.23
		C1297.3,543.67,1291.26,549.59,1282.04,551.46z"/>
	<path class="st1" d="M1306.41,550.58v-80.11h14.16v80.11H1306.41z"/>
	<path class="st1" d="M1375.21,495.71h14.16v54.87h-14.16v-6.47c-4.28,5.38-10.21,8.01-17.89,8.01c-7.35,0-13.61-2.74-18.88-8.34
		c-5.16-5.6-7.79-12.51-7.79-20.63s2.63-14.92,7.79-20.52c5.27-5.6,11.52-8.45,18.88-8.45c7.68,0,13.61,2.63,17.89,8.01V495.71z
		 M1359.96,538.62c4.39,0,8.01-1.43,10.86-4.28c2.96-2.96,4.39-6.69,4.39-11.19c0-4.5-1.43-8.23-4.39-11.08
		c-2.85-2.96-6.47-4.39-10.86-4.39s-8.01,1.43-10.86,4.39c-2.85,2.85-4.28,6.58-4.28,11.08c0,4.5,1.43,8.23,4.28,11.19
		C1351.95,537.19,1355.57,538.62,1359.96,538.62z"/>
</g>
</svg>
