<?xml version="1.0" encoding="utf-8"?>
<!-- Generator: Adobe Illustrator 28.1.0, SVG Export Plug-In . SVG Version: 6.00 Build 0)  -->
<svg version="1.1" id="Layer_1" xmlns="http://www.w3.org/2000/svg" xmlns:xlink="http://www.w3.org/1999/xlink" x="0px" y="0px"
	 viewBox="0 0 550.59 320.79" style="enable-background:new 0 0 550.59 320.79;" xml:space="preserve">
<style type="text/css">
	.st0{fill:#02205F;}
	.st1{fill:#FFFFFF;}
	.st2{fill:#00F0C0;}
</style>
<g>
	<g>
		<g>
			<path class="st0" d="M521.16,187.12c-0.12,0.07-0.26,0.1-0.41,0.08l-24.5-2.73c-0.38-0.04-0.65-0.38-0.6-0.76
				c0.04-0.38,0.38-0.65,0.76-0.6l24.5,2.73c0.38,0.04,0.65,0.38,0.6,0.76C521.48,186.83,521.34,187.02,521.16,187.12z"/>
		</g>
		<g>
			<path class="st0" d="M528.82,158.72c-0.05,0.03-0.1,0.05-0.16,0.06l-33.53,8.77c-0.37,0.1-0.74-0.12-0.84-0.49
				c-0.1-0.37,0.12-0.74,0.49-0.84l33.53-8.77c0.37-0.1,0.74,0.12,0.84,0.49C529.23,158.25,529.08,158.57,528.82,158.72z"/>
		</g>
		<g>
			<path class="st0" d="M485.09,155.25c-0.26,0.15-0.61,0.11-0.83-0.12c-0.26-0.27-0.25-0.71,0.02-0.97l22.89-22.04
				c0.27-0.26,0.71-0.25,0.97,0.02c0.26,0.27,0.25,0.71-0.02,0.97l-22.89,22.04C485.19,155.18,485.14,155.22,485.09,155.25z"/>
		</g>
	</g>
	<g>
		<g>
			<path class="st0" d="M34.55,187.12c0.12,0.07,0.26,0.1,0.41,0.08l24.5-2.73c0.38-0.04,0.65-0.38,0.6-0.76
				c-0.04-0.38-0.38-0.65-0.76-0.6l-24.5,2.73c-0.38,0.04-0.65,0.38-0.6,0.76C34.23,186.83,34.37,187.02,34.55,187.12z"/>
		</g>
		<g>
			<path class="st0" d="M26.89,158.72c0.05,0.03,0.1,0.05,0.16,0.06l33.53,8.77c0.37,0.1,0.74-0.12,0.84-0.49
				c0.1-0.37-0.12-0.74-0.49-0.84l-33.53-8.77c-0.37-0.1-0.74,0.12-0.84,0.49C26.48,158.25,26.63,158.57,26.89,158.72z"/>
		</g>
		<g>
			<path class="st0" d="M70.62,155.25c0.26,0.15,0.61,0.11,0.83-0.12c0.26-0.27,0.25-0.71-0.02-0.97l-22.89-22.04
				c-0.27-0.26-0.71-0.25-0.97,0.02c-0.26,0.27-0.25,0.71,0.02,0.97l22.89,22.04C70.53,155.18,70.57,155.22,70.62,155.25z"/>
		</g>
	</g>
	<g>
		<g>
			<path class="st1" d="M397.01,156.93l-244.78,0c-28.94,0-52.4-23.46-52.4-52.4v-1.71c0-28.94,23.46-52.4,52.4-52.4l244.78,0
				c28.94,0,52.4,23.46,52.4,52.4v1.71C449.42,133.47,425.96,156.93,397.01,156.93z"/>
			<path class="st0" d="M153.09,157.5c-29.68,0-53.83-24.15-53.83-53.83s24.15-53.83,53.83-53.83l243.07,0
				c29.68,0,53.83,24.15,53.83,53.83c0,29.68-24.15,53.83-53.83,53.83L153.09,157.5z M396.16,50.98l-243.07,0
				c-29.05,0-52.69,23.64-52.69,52.69s23.64,52.69,52.69,52.69l243.07,0c29.05,0,52.69-23.64,52.69-52.69S425.21,50.98,396.16,50.98
				z"/>
		</g>
		<g>
			<path class="st2" d="M388.95,149l-238.18,0c-29.14,0-52.76-23.62-52.76-52.76v-1.01c0-29.14,23.62-52.76,52.76-52.76l238.18,0
				c29.14,0,52.76,23.62,52.76,52.76v1.01C441.71,125.38,418.09,149,388.95,149z"/>
			<path class="st0" d="M151.27,149.57c-29.68,0-53.83-24.15-53.83-53.83c0-14.38,5.6-27.9,15.77-38.07s23.69-15.77,38.07-15.77
				l237.18,0c29.68,0,53.83,24.15,53.83,53.83s-24.15,53.83-53.83,53.83L151.27,149.57z M388.45,43.05l-237.18,0
				c-14.07,0-27.3,5.48-37.26,15.43c-9.95,9.95-15.43,23.18-15.43,37.26c0,29.05,23.64,52.69,52.69,52.69l237.18,0
				c29.05,0,52.69-23.64,52.69-52.69S417.5,43.05,388.45,43.05z"/>
		</g>
		<g>
			<path class="st0" d="M199.17,95.14v21.56h-9.03V95.77c0-4.2-2.17-6.65-5.88-6.65c-4.13,0-6.51,2.8-6.51,7.91v19.67h-9.03V95.77
				c0-4.2-2.17-6.65-5.88-6.65c-3.99,0-6.58,2.8-6.58,7.91v19.67h-9.03V81.7h9.03v3.71c2.1-3.15,5.32-4.69,9.73-4.69
				c4.27,0,7.49,1.68,9.52,5.04c2.31-3.36,5.81-5.04,10.43-5.04C193.99,80.72,199.17,86.39,199.17,95.14z"/>
			<path class="st0" d="M210.23,67.7h8.4v48.99h-9.66V77.92l-9.24,2.59l-2.38-8.26L210.23,67.7z"/>
			<path class="st0" d="M228.83,110.74c-3.43-4.69-5.18-10.85-5.18-18.55c0-7.7,1.75-13.86,5.18-18.48c3.5-4.69,8.33-7,14.42-7
				c6.16,0,10.99,2.31,14.42,7c3.43,4.62,5.18,10.78,5.18,18.48c0,7.7-1.75,13.86-5.18,18.55c-3.43,4.62-8.26,6.93-14.42,6.93
				C237.16,117.67,232.33,115.36,228.83,110.74z M243.25,76.1c-6.51,0-9.94,5.67-9.94,16.1c0,10.43,3.43,16.03,9.94,16.03
				c6.51,0,10.01-5.67,10.01-16.03C253.26,81.77,249.76,76.1,243.25,76.1z"/>
			<path class="st0" d="M284.02,117.25v2.66c2.73,0.63,4.9,2.45,4.9,5.46c0,4.9-5.11,7.07-15.4,6.44v-6.37
				c5.04,0.35,7.56-0.14,7.56-1.4c0-0.91-1.47-1.54-4.41-1.75v-4.83c-5.6-0.7-9.52-3.43-11.69-8.12l7.84-4.41
				c1.05,3.01,3.29,4.55,6.86,4.55c3.22,0,4.83-0.98,4.83-3.01c0-1.89-2.8-2.94-6.37-3.85c-5.18-1.33-11.69-3.5-11.69-10.78
				c0-3.43,1.26-6.16,3.78-8.12c2.59-2.03,5.74-3.01,9.52-3.01c5.67,0,10.57,2.66,13.3,7.42l-7.7,4.2c-1.12-2.38-3.01-3.57-5.6-3.57
				c-2.31,0-4.06,1.12-4.06,2.87c0,1.89,2.8,2.94,6.37,3.85c5.11,1.05,11.76,3.5,11.69,10.99
				C293.75,112.28,289.9,116.06,284.02,117.25z"/>
			<path class="st0" d="M323.44,81.7h9.03v34.99h-9.03v-4.13c-2.73,3.43-6.51,5.11-11.41,5.11c-4.69,0-8.68-1.75-12.04-5.32
				c-3.29-3.57-4.97-7.98-4.97-13.16s1.68-9.52,4.97-13.09c3.36-3.57,7.35-5.39,12.04-5.39c4.9,0,8.68,1.68,11.41,5.11V81.7z
				 M313.71,109.06c2.8,0,5.11-0.91,6.93-2.73c1.89-1.89,2.8-4.27,2.8-7.14s-0.91-5.25-2.8-7.07c-1.82-1.89-4.13-2.8-6.93-2.8
				c-2.8,0-5.11,0.91-6.93,2.8c-1.82,1.82-2.73,4.2-2.73,7.07s0.91,5.25,2.73,7.14C308.6,108.15,310.91,109.06,313.71,109.06z"/>
			<path class="st0" d="M366.94,84.57c2.52,2.59,3.78,6.09,3.78,10.64v21.49h-9.03V96.33c0-4.69-2.73-7.21-6.93-7.21
				c-4.69,0-7.7,2.87-7.7,8.68v18.9h-9.03V81.7h9.03v3.92c2.17-3.29,5.67-4.9,10.43-4.9C361.34,80.72,364.49,81.98,366.94,84.57z"/>
			<path class="st0" d="M390.33,95.49c5.11,1.05,11.76,3.5,11.69,10.99c0,3.57-1.33,6.37-4.06,8.33c-2.66,1.89-6.02,2.87-10.01,2.87
				c-7.21,0-12.11-2.8-14.7-8.33l7.84-4.41c1.05,3.01,3.29,4.55,6.86,4.55c3.22,0,4.83-0.98,4.83-3.01c0-1.89-2.8-2.94-6.37-3.85
				c-5.18-1.33-11.69-3.5-11.69-10.78c0-3.43,1.26-6.16,3.78-8.12c2.59-2.03,5.74-3.01,9.52-3.01c5.67,0,10.57,2.66,13.3,7.42
				l-7.7,4.2c-1.12-2.38-3.01-3.57-5.6-3.57c-2.31,0-4.06,1.12-4.06,2.87C383.96,93.53,386.76,94.58,390.33,95.49z"/>
		</g>
		<g>
			<path class="st1" d="M427.67,260.88l-299.76,17.34c-29.37,1.7-54.55-20.73-56.25-50.09l0,0c-1.7-29.37,20.73-54.55,50.09-56.25
				l299.76-17.34c29.37-1.7,54.55,20.73,56.25,50.09v0C479.46,234,457.04,259.18,427.67,260.88z"/>
			<path class="st0" d="M124.76,278.88c-13.21,0-25.79-4.78-35.73-13.63c-10.74-9.56-17.11-22.74-17.94-37.09
				c-1.71-29.63,21-55.14,50.63-56.85l299.76-17.34c14.35-0.83,28.17,3.98,38.91,13.54c10.74,9.56,17.11,22.74,17.94,37.09
				c1.71,29.63-21,55.14-50.63,56.85l-299.76,17.34C126.88,278.85,125.81,278.88,124.76,278.88z M424.66,155.02
				c-1.03,0-2.07,0.03-3.11,0.09l-299.76,17.34c-29,1.68-51.23,26.64-49.56,55.64c0.81,14.05,7.05,26.94,17.56,36.3
				c10.51,9.36,24.03,14.07,38.09,13.25l299.76-17.34l0.03,0.57l-0.03-0.57c14.05-0.81,26.94-7.05,36.3-17.56
				c9.36-10.51,14.07-24.04,13.25-38.08c-0.81-14.05-7.05-26.94-17.56-36.3C449.91,159.7,437.59,155.02,424.66,155.02z"/>
		</g>
		<g>
			<path class="st1" d="M419.3,253.41l-299.76,17.34c-29.37,1.7-54.55-20.73-56.25-50.09l0,0c-1.7-29.37,20.73-54.55,50.09-56.25
				l299.76-17.34c29.37-1.7,54.55,20.73,56.25,50.09v0C471.1,226.53,448.67,251.71,419.3,253.41z"/>
			<path class="st0" d="M116.43,271.42c-28.27,0-52.05-22.14-53.71-50.72c-1.71-29.63,21-55.14,50.63-56.85l299.76-17.34
				c14.35-0.83,28.17,3.98,38.91,13.54c10.74,9.56,17.11,22.74,17.94,37.09c1.71,29.63-21,55.14-50.63,56.85l-299.76,17.34
				C118.52,271.39,117.47,271.42,116.43,271.42z M416.3,147.55c-1.03,0-2.07,0.03-3.11,0.09l-299.76,17.34
				c-29,1.68-51.23,26.64-49.56,55.64c1.68,29,26.64,51.23,55.64,49.56l299.76-17.34l0.03,0.57l-0.03-0.57
				c29-1.68,51.23-26.64,49.56-55.64c-0.81-14.05-7.05-26.94-17.56-36.3C441.54,152.23,429.22,147.55,416.3,147.55z"/>
		</g>
		<g>
			<path class="st0" d="M124.66,237.23l-2.95-51.01l9.01-0.52l2.95,51.01L124.66,237.23z"/>
			<path class="st0" d="M155.81,236.41c-5.17,0.3-9.67-1.19-13.44-4.55c-3.77-3.36-5.77-7.66-6.07-12.83
				c-0.3-5.17,1.2-9.6,4.55-13.37c3.36-3.77,7.65-5.84,12.82-6.14c5.17-0.3,9.68,1.26,13.45,4.62c3.77,3.36,5.84,7.58,6.14,12.75
				c0.3,5.17-1.26,9.68-4.62,13.45C165.28,234.11,160.98,236.11,155.81,236.41z M155.3,227.6c2.73-0.16,4.91-1.2,6.62-3.12
				c1.71-1.92,2.49-4.28,2.32-7.08c-0.16-2.79-1.2-5.05-3.13-6.76c-1.92-1.71-4.21-2.49-6.94-2.33c-2.72,0.16-4.91,1.2-6.62,3.12
				c-1.64,1.92-2.42,4.28-2.25,7.07c0.16,2.79,1.2,5.05,3.06,6.76C150.29,226.98,152.58,227.76,155.3,227.6z"/>
			<path class="st0" d="M196.07,206.74l-7.9,0.46l0.84,14.53c0.22,3.77,2.95,3.69,8.1,3.11l0.47,8.18
				c-12.29,2.11-17.03-1.19-17.59-10.76l-0.84-14.53l-6.08,0.35l-0.5-8.66l6.08-0.35l-0.41-7.06l8.86-3.25l0.57,9.78l7.9-0.46
				L196.07,206.74z"/>
			<path class="st0" d="M207.91,218.6c1.44,4.33,4.85,6.31,10.23,6c3.42-0.2,6.01-1.54,7.62-3.95l7.51,3.77
				c-3.14,5.16-8.09,7.97-14.8,8.36c-5.8,0.34-10.51-1.14-14.21-4.44c-3.7-3.29-5.7-7.59-6-12.9c-0.3-5.24,1.19-9.74,4.41-13.43
				c3.22-3.76,7.59-5.77,12.97-6.08c5.1-0.3,9.46,1.21,12.95,4.58c3.56,3.37,5.49,7.6,5.79,12.84c0.07,1.19,0,2.38-0.14,3.72
				L207.91,218.6z M225.19,210.59c-1.32-4.69-4.95-6.79-9.07-6.56c-4.82,0.28-7.96,3.05-8.74,7.59L225.19,210.59z"/>
			<path class="st0" d="M246.42,201.16c1.42-4.57,5.48-7.05,10.23-7.32l0.58,10.06c-2.75-0.19-5.23,0.51-7.31,2.11
				c-2.08,1.59-2.99,4.03-2.8,7.38l0.97,16.7l-9.01,0.52l-2.02-34.94l9.01-0.52L246.42,201.16z"/>
			<path class="st0" d="M267.86,215.13c1.44,4.33,4.85,6.31,10.23,6c3.42-0.2,6.01-1.54,7.62-3.95l7.51,3.77
				c-3.14,5.16-8.09,7.97-14.8,8.36c-5.8,0.34-10.51-1.14-14.21-4.44c-3.7-3.29-5.7-7.59-6-12.9c-0.3-5.24,1.19-9.74,4.41-13.43
				c3.22-3.76,7.59-5.77,12.97-6.08c5.1-0.3,9.46,1.21,12.95,4.58c3.56,3.37,5.49,7.6,5.79,12.84c0.07,1.19,0,2.38-0.14,3.72
				L267.86,215.13z M285.13,207.12c-1.32-4.69-4.95-6.79-9.07-6.56c-4.82,0.28-7.96,3.05-8.74,7.59L285.13,207.12z"/>
			<path class="st0" d="M317.94,190.99l9.64-0.56l-10.7,35.67c-3.05,10.27-8.67,15.01-17.64,15.04l-0.49-8.38
				c4.83-0.21,7.36-2.39,8.77-7.24l-16.28-32.99l9.85-0.57l10.44,22.95L317.94,190.99z"/>
			<path class="st0" d="M354.22,188.89l9.01-0.52l2.02,34.94l-9.01,0.52l-0.24-4.12c-2.53,3.58-6.2,5.48-11.09,5.76
				c-4.68,0.27-8.77-1.25-12.33-4.61c-3.49-3.37-5.42-7.68-5.72-12.85c-0.3-5.17,1.13-9.6,4.2-13.35c3.15-3.76,7.03-5.8,11.71-6.08
				c4.89-0.28,8.76,1.18,11.68,4.44L354.22,188.89z M346.09,216.77c2.79-0.16,5.05-1.2,6.76-3.13c1.78-2,2.55-4.42,2.38-7.29
				c-0.17-2.86-1.21-5.19-3.2-6.9c-1.93-1.78-4.28-2.56-7.08-2.39c-2.79,0.16-5.05,1.2-6.76,3.2c-1.71,1.92-2.48,4.35-2.32,7.21
				s1.21,5.19,3.14,6.97C340.93,216.16,343.29,216.94,346.09,216.77z"/>
			<path class="st0" d="M384.17,200.97c5.16,0.75,11.94,2.81,12.3,10.29c0.21,3.56-0.96,6.44-3.57,8.55
				c-2.55,2.04-5.84,3.21-9.83,3.44c-7.2,0.42-12.25-2.1-15.15-7.47l7.57-4.85c1.22,2.94,3.55,4.35,7.11,4.15
				c3.21-0.19,4.76-1.26,4.65-3.28c-0.11-1.89-2.96-2.77-6.58-3.47c-5.25-1.03-11.87-2.82-12.29-10.09c-0.2-3.42,0.9-6.22,3.3-8.32
				c2.47-2.18,5.56-3.34,9.33-3.55c5.66-0.33,10.7,2.04,13.7,6.64l-7.44,4.64c-1.26-2.31-3.21-3.39-5.8-3.24
				c-2.31,0.13-3.99,1.35-3.89,3.1C377.7,199.38,380.55,200.27,384.17,200.97z"/>
			<path class="st0" d="M400.53,221.27l-2.02-34.94l9.01-0.52l2.02,34.94L400.53,221.27z"/>
		</g>
		<g>
			<path class="st0" d="M367.76,149.57H226.46c0,0,56.76,3.3,65.73,4.28L367.76,149.57z"/>
		</g>
	</g>
</g>
</svg>
