<?xml version="1.0" encoding="utf-8"?>
<!-- Generator: Adobe Illustrator 28.1.0, SVG Export Plug-In . SVG Version: 6.00 Build 0)  -->
<svg version="1.1" id="Layer_1" xmlns="http://www.w3.org/2000/svg" xmlns:xlink="http://www.w3.org/1999/xlink" x="0px" y="0px"
	 viewBox="0 0 1000 1000" style="enable-background:new 0 0 1000 1000;" xml:space="preserve">
<style type="text/css">
	.st0{fill:#F0EAF9;}
	.st1{fill:#02205F;}
	.st2{fill:#FFFFFF;}
	.st3{fill:#0F234E;}
	.st4{font-family:'Gilroy-Bold';}
	.st5{font-size:62.4665px;}
</style>
<g>
	<g>
		<path class="st0" d="M626.26,897.59H387.6c-61.44,0-111.25-49.81-111.25-111.25V547.68c0-61.44,49.81-111.25,111.25-111.25h238.66
			c61.44,0,111.25,49.81,111.25,111.25v238.66C737.51,847.78,687.7,897.59,626.26,897.59z"/>
		<path class="st1" d="M625.54,900.39H388.32c-63.29,0-114.77-51.49-114.77-114.77V548.4c0-63.29,51.49-114.77,114.77-114.77h237.22
			c63.29,0,114.77,51.49,114.77,114.77v237.22C740.31,848.9,688.82,900.39,625.54,900.39z M388.32,439.23
			c-60.2,0-109.17,48.98-109.17,109.17v237.22c0,60.2,48.98,109.17,109.17,109.17h237.22c60.2,0,109.17-48.98,109.17-109.17V548.4
			c0-60.2-48.98-109.17-109.17-109.17H388.32z"/>
	</g>
	<g>
		<path class="st2" d="M610.71,609.29H372.05c-61.44,0-111.25-49.81-111.25-111.25V259.37c0-61.44,49.81-111.25,111.25-111.25
			h238.66c61.44,0,111.25,49.81,111.25,111.25v238.66C721.97,559.48,672.16,609.29,610.71,609.29z"/>
		<path class="st1" d="M609.99,611.39H372.78c-62.9,0-114.07-51.17-114.07-114.07V260.1c0-62.9,51.17-114.07,114.07-114.07h237.22
			c62.9,0,114.07,51.17,114.07,114.07v237.22C724.06,560.21,672.89,611.39,609.99,611.39z M372.78,150.22
			c-60.59,0-109.87,49.29-109.87,109.87v237.22c0,60.59,49.29,109.87,109.87,109.87h237.22c60.59,0,109.87-49.29,109.87-109.87
			V260.1c0-60.59-49.29-109.87-109.87-109.87H372.78z"/>
	</g>
	<g>
		<g>
			<path class="st3" d="M419.13,372.97c22.1,0,36.98,14.21,36.98,40.51v59.21h-25.99v-53.92c0-14.05-6.06-21.03-17.61-21.03
				c-14.64,0-21.5,10.32-21.5,28.46v46.56h-25.83v-53.98c0-14.05-6.26-21.03-17.81-21.03c-14.48,0-21.1,10.32-21.1,28.46v46.56
				h-25.83V375.3h25.03v15.01c5.86-10.32,15.44-17.34,30.49-17.34c13.88,0,24.63,5.86,30.32,18.14
				C392.53,379.99,403.85,372.97,419.13,372.97z M550.43,404.56c0-40.74,28.72-68.2,65.3-68.2c36.58,0,65.3,27.49,65.3,68.2
				s-28.72,68.2-65.3,68.2C579.19,472.72,550.43,445.26,550.43,404.56z M653.67,404.56c0-25.13-16.04-40.9-37.94-40.9
				c-22.1,0-37.94,15.78-37.94,40.9s15.84,40.9,37.94,40.9C637.66,445.46,653.67,429.69,653.67,404.56z M427.78,331.4
				c-0.7,7.52,4.86,14.15,12.38,14.81l22.3,2.03c7.52,0.7,14.18-4.83,14.88-12.35s-4.86-14.15-12.38-14.81l-22.3-2.03
				C435.14,318.39,428.48,323.91,427.78,331.4z M460.37,261.74c-6.22,4.29-7.75,12.78-3.43,18.97l17.24,24.76
				c4.29,6.19,12.81,7.72,19.04,3.43c6.22-4.29,7.75-12.78,3.43-18.97l-17.21-24.76C475.11,258.98,466.59,257.45,460.37,261.74z
				 M539.85,248.46c-7.29-2-14.81,2.3-16.81,9.59l-7.92,29.02c-2,7.26,2.3,14.78,9.62,16.74c7.29,2,14.81-2.3,16.81-9.59l7.92-29.02
				C551.43,257.95,547.1,250.46,539.85,248.46z M593.8,304.21c-3.16-6.86-11.32-9.82-18.17-6.66l-20.3,9.32
				c-6.86,3.16-9.85,11.25-6.69,18.11c3.16,6.86,11.32,9.82,18.17,6.66l20.3-9.32C594,319.15,596.99,311.03,593.8,304.21z
				 M516.85,336.36c-3.83,0-7.52,1.33-10.48,3.79l-41,34.31c-5.79,4.83-6.56,13.45-1.7,19.2c4.86,5.76,13.51,6.52,19.27,1.7
				l22.8-19.04v96.45h27.36V352.64C533.12,343.62,525.83,336.36,516.85,336.36z"/>
		</g>
	</g>
	<text transform="matrix(1 0 0 1 300.4409 717.0988)" class="st3 st4 st5">+994 5*****178</text>
</g>
</svg>
