<?xml version="1.0" encoding="utf-8"?>
<!-- Generator: Adobe Illustrator 28.1.0, SVG Export Plug-In . SVG Version: 6.00 Build 0)  -->
<svg version="1.1" id="Layer_1" xmlns="http://www.w3.org/2000/svg" xmlns:xlink="http://www.w3.org/1999/xlink" x="0px" y="0px"
	 viewBox="0 0 1000 1000" style="enable-background:new 0 0 1000 1000;" xml:space="preserve">
<style type="text/css">
	.st0{fill:#F0EAF9;}
	.st1{fill:#02205F;}
	.st2{fill:#FFFFFF;}
	.st3{fill:#0F234E;}
</style>
<g>
	<g>
		<path class="st0" d="M626.96,736.48H388.3c-61.44,0-111.25-49.81-111.25-111.25V386.57c0-61.44,49.81-111.25,111.25-111.25h238.66
			c61.44,0,111.25,49.81,111.25,111.25v238.66C738.21,686.67,688.4,736.48,626.96,736.48z"/>
		<path class="st1" d="M626.24,739.28H389.02c-63.29,0-114.77-51.49-114.77-114.77V387.29c0-63.29,51.49-114.77,114.77-114.77
			h237.22c63.29,0,114.77,51.49,114.77,114.77v237.22C741.01,687.79,689.52,739.28,626.24,739.28z M389.02,278.12
			c-60.2,0-109.17,48.98-109.17,109.17v237.22c0,60.2,48.98,109.17,109.17,109.17h237.22c60.2,0,109.17-48.98,109.17-109.17V387.29
			c0-60.2-48.97-109.17-109.17-109.17H389.02z"/>
	</g>
	<g>
		<path class="st2" d="M611.42,723.2H372.75c-61.44,0-111.25-49.81-111.25-111.25V373.29c0-61.44,49.81-111.25,111.25-111.25h238.66
			c61.44,0,111.25,49.81,111.25,111.25v238.66C722.67,673.39,672.86,723.2,611.42,723.2z"/>
		<path class="st1" d="M610.69,725.3H373.48c-62.9,0-114.07-51.17-114.07-114.07V374.01c0-62.9,51.17-114.07,114.07-114.07h237.22
			c62.9,0,114.07,51.17,114.07,114.07v237.22C724.76,674.13,673.59,725.3,610.69,725.3z M373.48,264.14
			c-60.59,0-109.87,49.29-109.87,109.87v237.22c0,60.59,49.29,109.87,109.87,109.87h237.22c60.59,0,109.87-49.29,109.87-109.87
			V374.01c0-60.59-49.29-109.87-109.87-109.87H373.48z"/>
	</g>
	<g>
		<g>
			<path class="st3" d="M419.83,486.89c22.1,0,36.98,14.21,36.98,40.51v59.21h-25.99v-53.92c0-14.05-6.06-21.03-17.61-21.03
				c-14.64,0-21.5,10.32-21.5,28.46v46.56h-25.83v-53.98c0-14.05-6.26-21.03-17.81-21.03c-14.48,0-21.1,10.32-21.1,28.46v46.56
				h-25.83v-97.45h25.03v15.01c5.86-10.32,15.44-17.34,30.49-17.34c13.88,0,24.63,5.86,30.32,18.14
				C393.24,493.91,404.55,486.89,419.83,486.89z M551.13,518.47c0-40.74,28.72-68.2,65.3-68.2c36.58,0,65.3,27.49,65.3,68.2
				c0,40.71-28.72,68.2-65.3,68.2C579.89,586.64,551.13,559.18,551.13,518.47z M654.37,518.47c0-25.13-16.04-40.9-37.94-40.9
				c-22.1,0-37.94,15.78-37.94,40.9c0,25.13,15.84,40.9,37.94,40.9C638.36,559.38,654.37,543.6,654.37,518.47z M428.48,445.32
				c-0.7,7.52,4.86,14.15,12.38,14.81l22.3,2.03c7.52,0.7,14.18-4.83,14.88-12.35s-4.86-14.15-12.38-14.81l-22.3-2.03
				C435.84,432.3,429.18,437.83,428.48,445.32z M461.07,375.66c-6.22,4.29-7.75,12.78-3.43,18.97l17.24,24.76
				c4.29,6.19,12.81,7.72,19.04,3.43c6.22-4.29,7.75-12.78,3.43-18.97l-17.21-24.76C475.81,372.89,467.29,371.36,461.07,375.66z
				 M540.55,362.38c-7.29-2-14.81,2.3-16.81,9.59l-7.92,29.02c-2,7.26,2.3,14.78,9.62,16.74c7.29,2,14.81-2.3,16.81-9.59l7.92-29.02
				C552.13,371.86,547.8,364.37,540.55,362.38z M594.5,418.13c-3.16-6.86-11.32-9.82-18.17-6.66l-20.3,9.32
				c-6.86,3.16-9.85,11.25-6.69,18.11s11.32,9.82,18.17,6.66l20.3-9.32C594.7,433.07,597.69,424.95,594.5,418.13z M517.55,450.28
				c-3.83,0-7.52,1.33-10.48,3.79l-41,34.31c-5.79,4.83-6.56,13.45-1.7,19.2s13.51,6.52,19.27,1.7l22.8-19.04v96.45h27.36V466.55
				C533.82,457.53,526.53,450.28,517.55,450.28z"/>
		</g>
	</g>
</g>
</svg>
