<?xml version="1.0" encoding="utf-8"?>
<!-- Generator: Adobe Illustrator 28.1.0, SVG Export Plug-In . SVG Version: 6.00 Build 0)  -->
<svg version="1.1" id="Layer_1" xmlns="http://www.w3.org/2000/svg" xmlns:xlink="http://www.w3.org/1999/xlink" x="0px" y="0px"
	 viewBox="0 0 1000 1000" style="enable-background:new 0 0 1000 1000;" xml:space="preserve">
<style type="text/css">
	.st0{fill:#FFFFFF;}
	.st1{fill:#002163;}
	.st2{fill:#03EDC3;}
</style>
<g>
	<g>
		<g>
			<path class="st0" d="M744.81,559.03H261.3c-30.58,0-55.36-24.79-55.36-55.36v0c0-30.58,24.79-55.36,55.36-55.36h483.5
				c30.58,0,55.36,24.79,55.36,55.36v0C800.17,534.24,775.39,559.03,744.81,559.03z"/>
			<path class="st1" d="M744.81,559.87H261.3c-30.99,0-56.2-25.21-56.2-56.2c0-30.99,25.21-56.2,56.2-56.2h483.5
				c30.99,0,56.21,25.21,56.21,56.2C801.01,534.66,775.8,559.87,744.81,559.87z M261.3,449.14c-30.06,0-54.52,24.46-54.52,54.52
				s24.46,54.52,54.52,54.52h483.5c30.07,0,54.53-24.46,54.53-54.52s-24.46-54.52-54.53-54.52H261.3z"/>
		</g>
		<g>
			<path class="st2" d="M739.11,550.92H255.6c-30.58,0-55.36-24.79-55.36-55.36v0c0-30.58,24.79-55.36,55.36-55.36h483.5
				c30.58,0,55.36,24.79,55.36,55.36v0C794.47,526.13,769.69,550.92,739.11,550.92z"/>
			<path class="st1" d="M739.11,551.76H255.6c-30.99,0-56.2-25.21-56.2-56.2c0-30.99,25.21-56.2,56.2-56.2h483.5
				c30.99,0,56.2,25.21,56.2,56.2C795.31,526.54,770.1,551.76,739.11,551.76z M255.6,441.03c-30.07,0-54.52,24.46-54.52,54.52
				c0,30.07,24.46,54.52,54.52,54.52h483.5c30.07,0,54.52-24.46,54.52-54.52c0-30.07-24.46-54.52-54.52-54.52H255.6z"/>
		</g>
	</g>
	<g>
		<path class="st1" d="M285.87,505.78l4.5,4.69l-6.12,5.43l-4.75-4.93c-3.37,1.87-7.06,2.81-10.99,2.81
			c-6.31,0-11.62-2.19-16.05-6.56c-4.44-4.44-6.62-9.81-6.62-16.18s2.19-11.74,6.62-16.12c4.44-4.44,9.75-6.62,16.05-6.62
			c6.31,0,11.62,2.19,16.05,6.62c4.44,4.37,6.68,9.75,6.68,16.12C291.24,496.72,289.43,501.59,285.87,505.78z M273.37,504.53
			l-7.18-7.5l6.12-5.44l7.68,8c1.75-2.5,2.62-5.37,2.62-8.56c0-4.19-1.37-7.62-4.06-10.31c-2.69-2.69-6.06-4.06-10.06-4.06
			s-7.37,1.37-10.06,4.06c-2.69,2.69-4.06,6.12-4.06,10.31c0,4.12,1.37,7.56,4.06,10.25c2.69,2.69,6.06,4.06,10.06,4.06
			C270.12,505.34,271.75,505.09,273.37,504.53z"/>
		<path class="st1" d="M320.97,481.66h8.06v31.24h-8.06v-3.69c-2.44,3.06-5.81,4.56-10.18,4.56c-4.19,0-7.75-1.56-10.74-4.75
			c-2.94-3.19-4.44-7.12-4.44-11.74c0-4.62,1.5-8.5,4.44-11.68c3-3.19,6.56-4.81,10.74-4.81c4.37,0,7.75,1.5,10.18,4.56V481.66z
			 M312.29,506.09c2.5,0,4.56-0.81,6.18-2.44c1.69-1.69,2.5-3.81,2.5-6.37c0-2.56-0.81-4.69-2.5-6.31c-1.62-1.69-3.69-2.5-6.18-2.5
			c-2.5,0-4.56,0.81-6.18,2.5c-1.62,1.62-2.44,3.75-2.44,6.31c0,2.56,0.81,4.69,2.44,6.37
			C307.73,505.28,309.79,506.09,312.29,506.09z"/>
		<path class="st1" d="M336.33,512.9v-45.6h8.06v45.6H336.33z"/>
		<path class="st1" d="M350.83,472.98c0-2.69,2.25-5,4.93-5c2.75,0,5,2.31,5,5s-2.25,4.94-5,4.94
			C353.08,477.91,350.83,475.67,350.83,472.98z M351.76,512.9v-31.24h8.06v31.24H351.76z"/>
		<path class="st1" d="M396.12,485.6c3,3.19,4.5,7.06,4.5,11.68c0,4.62-1.5,8.56-4.5,11.74c-2.94,3.19-6.56,4.75-10.75,4.75
			c-4.37,0-7.75-1.5-10.12-4.56v3.69h-8.06v-43.73h8.06v16.18c2.37-3.06,5.75-4.56,10.12-4.56
			C389.56,480.79,393.18,482.41,396.12,485.6z M383.87,506.09c2.5,0,4.56-0.81,6.18-2.44c1.69-1.69,2.5-3.81,2.5-6.37
			c0-2.56-0.81-4.69-2.5-6.31c-1.62-1.69-3.69-2.5-6.18-2.5s-4.56,0.81-6.18,2.5c-1.62,1.62-2.44,3.75-2.44,6.31
			c0,2.56,0.81,4.69,2.44,6.37C379.31,505.28,381.37,506.09,383.87,506.09z"/>
		<path class="st1" d="M406.3,512.9v-45.6h8.06v45.6H406.3z"/>
		<path class="st1" d="M443.96,493.97c-1.06-3.94-4-5.87-8.81-5.87c-2.56,0-4.68,0.75-6.18,2.25l-5.31-5.31
			c2.94-2.81,6.81-4.25,11.62-4.25c5.19,0,9.31,1.56,12.43,4.69c3.12,3.12,4.69,7.06,4.69,11.81c0,4.69-1.56,8.62-4.62,11.74
			c-3.06,3.19-7.06,4.75-11.87,4.75c-4.56,0-8.37-1.56-11.31-4.75c-3-3.19-4.5-7.06-4.5-11.74c0-1.06,0.12-2.12,0.31-3.31H443.96z
			 M428.16,500.22c0.94,4.25,4.06,6.31,7.75,6.31c4.31,0,7.25-2.31,8.18-6.31H428.16z"/>
		<path class="st1" d="M466.08,487.03c1.5-4,5.25-6,9.5-6v9c-2.44-0.31-4.68,0.19-6.62,1.5c-1.94,1.31-2.87,3.44-2.87,6.43v14.93
			h-8.06v-31.24h8.06V487.03z"/>
		<path class="st1" d="M479.32,472.98c0-2.69,2.25-5,4.93-5c2.75,0,5,2.31,5,5s-2.25,4.94-5,4.94
			C481.57,477.91,479.32,475.67,479.32,472.98z M480.25,512.9v-31.24h8.06v31.24H480.25z"/>
		<path class="st1" d="M521.48,484.22c2.25,2.31,3.37,5.43,3.37,9.5v19.18h-8.06v-18.18c0-4.19-2.44-6.43-6.18-6.43
			c-4.19,0-6.87,2.56-6.87,7.75v16.87h-8.06v-31.24h8.06v3.5c1.94-2.94,5.06-4.37,9.31-4.37
			C516.49,480.79,519.3,481.91,521.48,484.22z"/>
		<path class="st1" d="M560.46,493.97c4.56,0.94,10.49,3.12,10.43,9.81c0,3.19-1.19,5.68-3.62,7.43c-2.37,1.69-5.37,2.56-8.93,2.56
			c-6.43,0-10.81-2.5-13.12-7.43l7-3.94c0.94,2.69,2.94,4.06,6.12,4.06c2.87,0,4.31-0.88,4.31-2.69c0-1.69-2.5-2.62-5.69-3.44
			c-4.62-1.19-10.43-3.12-10.43-9.62c0-3.06,1.12-5.5,3.37-7.25c2.31-1.81,5.12-2.69,8.5-2.69c5.06,0,9.43,2.37,11.87,6.62
			l-6.87,3.75c-1-2.12-2.69-3.19-5-3.19c-2.06,0-3.62,1-3.62,2.56C554.78,492.22,557.28,493.16,560.46,493.97z"/>
		<path class="st1" d="M575.14,472.98c0-2.69,2.25-5,4.93-5c2.75,0,5,2.31,5,5s-2.25,4.94-5,4.94
			C577.39,477.91,575.14,475.67,575.14,472.98z M576.08,512.9v-31.24h8.06v31.24H576.08z"/>
		<path class="st1" d="M611.87,481.66h8.62l-11.37,31.24c-3.25,9-8.5,12.93-16.49,12.49v-7.5c4.31,0.06,6.68-1.75,8.18-6
			l-12.81-30.24h8.81l8.12,20.99L611.87,481.66z"/>
		<path class="st1" d="M646.79,481.66h8.06v31.24h-8.06v-3.69c-2.44,3.06-5.81,4.56-10.18,4.56c-4.19,0-7.75-1.56-10.74-4.75
			c-2.94-3.19-4.44-7.12-4.44-11.74c0-4.62,1.5-8.5,4.44-11.68c3-3.19,6.56-4.81,10.74-4.81c4.37,0,7.75,1.5,10.18,4.56V481.66z
			 M638.11,506.09c2.5,0,4.56-0.81,6.18-2.44c1.69-1.69,2.5-3.81,2.5-6.37c0-2.56-0.81-4.69-2.5-6.31c-1.62-1.69-3.69-2.5-6.18-2.5
			c-2.5,0-4.56,0.81-6.18,2.5c-1.62,1.62-2.44,3.75-2.44,6.31c0,2.56,0.81,4.69,2.44,6.37
			C633.55,505.28,635.61,506.09,638.11,506.09z"/>
		<path class="st1" d="M687.96,484.22c2.25,2.31,3.37,5.43,3.37,9.5v19.18h-8.06v-18.18c0-4.19-2.44-6.43-6.18-6.43
			c-4.19,0-6.87,2.56-6.87,7.75v16.87h-8.06v-43.73h8.06v15.99c1.94-2.94,5.06-4.37,9.31-4.37
			C682.96,480.79,685.77,481.91,687.96,484.22z"/>
		<path class="st1" d="M698.2,512.9v-31.24h8.06v31.24H698.2z"/>
		<path class="st1" d="M726.5,493.97c4.56,0.94,10.49,3.12,10.43,9.81c0,3.19-1.19,5.68-3.62,7.43c-2.37,1.69-5.37,2.56-8.93,2.56
			c-6.43,0-10.81-2.5-13.12-7.43l7-3.94c0.94,2.69,2.94,4.06,6.12,4.06c2.87,0,4.31-0.88,4.31-2.69c0-1.69-2.5-2.62-5.69-3.44
			c-4.62-1.19-10.43-3.12-10.43-9.62c0-3.06,1.12-5.5,3.37-7.25c2.31-1.81,5.12-2.69,8.5-2.69c5.06,0,9.43,2.37,11.87,6.62
			l-6.87,3.75c-1-2.12-2.69-3.19-5-3.19c-2.06,0-3.62,1-3.62,2.56C720.81,492.22,723.31,493.16,726.5,493.97z"/>
		<path class="st1" d="M742.11,512.9v-31.24h8.06v31.24H742.11z"/>
	</g>
</g>
</svg>
