<?xml version="1.0" encoding="utf-8"?>
<!-- Generator: Adobe Illustrator 28.1.0, SVG Export Plug-In . SVG Version: 6.00 Build 0)  -->
<svg version="1.1" id="Layer_1" xmlns="http://www.w3.org/2000/svg" xmlns:xlink="http://www.w3.org/1999/xlink" x="0px" y="0px"
	 viewBox="0 0 1920 1080" style="enable-background:new 0 0 1920 1080;" xml:space="preserve">
<style type="text/css">
	.st0{fill:#FFFFFF;}
	.st1{fill:#02205F;}
	.st2{fill:#00F0C0;}
</style>
<g>
	<path class="st0" d="M1168.28,654.97H700.45c-53.71,0-97.26-43.54-97.26-97.26v0c0-53.71,43.54-97.26,97.26-97.26h467.83
		c53.71,0,97.26,43.54,97.26,97.26v0C1265.54,611.42,1222,654.97,1168.28,654.97z"/>
	<path class="st1" d="M1168.28,656.44H700.45c-54.44,0-98.73-44.29-98.73-98.73c0-54.44,44.29-98.74,98.73-98.74h467.83
		c54.44,0,98.74,44.29,98.74,98.73C1267.02,612.15,1222.73,656.44,1168.28,656.44z M700.45,461.92c-52.81,0-95.78,42.97-95.78,95.78
		s42.97,95.78,95.78,95.78h467.83c52.82,0,95.79-42.97,95.79-95.78s-42.97-95.78-95.79-95.78H700.45z"/>
</g>
<g>
	<path class="st2" d="M1158.27,640.72H691.91c-53.71,0-97.26-43.54-97.26-97.26v0c0-53.71,43.54-97.26,97.26-97.26h466.36
		c53.71,0,97.26,43.54,97.26,97.26v0C1255.53,597.17,1211.98,640.72,1158.27,640.72z"/>
	<path class="st1" d="M1158.27,642.19H690.44c-54.44,0-98.74-44.29-98.74-98.73c0-54.44,44.29-98.74,98.74-98.74h467.83
		c54.44,0,98.73,44.29,98.73,98.74C1257,597.9,1212.71,642.19,1158.27,642.19z M690.44,447.67c-52.82,0-95.78,42.97-95.78,95.78
		s42.97,95.78,95.78,95.78h467.83c52.82,0,95.78-42.97,95.78-95.78s-42.97-95.78-95.78-95.78H690.44z"/>
</g>
<g>
	<path class="st1" d="M745.83,561.41l7.9,8.23l-10.75,9.55l-8.34-8.67c-5.93,3.29-12.4,4.94-19.31,4.94
		c-11.08,0-20.41-3.84-28.2-11.52c-7.79-7.79-11.63-17.23-11.63-28.42s3.84-20.63,11.63-28.31c7.79-7.79,17.12-11.63,28.2-11.63
		s20.41,3.84,28.2,11.63c7.79,7.68,11.74,17.12,11.74,28.31C755.27,545.5,752.08,554.06,745.83,561.41z M723.88,559.22l-12.62-13.17
		l10.75-9.55l13.5,14.05c3.07-4.39,4.61-9.44,4.61-15.03c0-7.35-2.41-13.39-7.13-18.11s-10.65-7.13-17.67-7.13
		s-12.95,2.41-17.67,7.13s-7.13,10.75-7.13,18.11c0,7.24,2.41,13.28,7.13,18c4.72,4.72,10.65,7.13,17.67,7.13
		C718.17,560.65,721.03,560.21,723.88,559.22z"/>
	<path class="st1" d="M807.5,519.05h14.16v54.87H807.5v-6.47c-4.28,5.38-10.21,8.01-17.89,8.01c-7.35,0-13.61-2.74-18.88-8.34
		c-5.16-5.6-7.79-12.51-7.79-20.63c0-8.12,2.63-14.92,7.79-20.52c5.27-5.6,11.52-8.45,18.88-8.45c7.68,0,13.61,2.63,17.89,8.01
		V519.05z M792.25,561.96c4.39,0,8.01-1.43,10.86-4.28c2.96-2.96,4.39-6.69,4.39-11.19c0-4.5-1.43-8.23-4.39-11.08
		c-2.85-2.96-6.47-4.39-10.86-4.39s-8.01,1.43-10.86,4.39c-2.85,2.85-4.28,6.58-4.28,11.08c0,4.5,1.43,8.23,4.28,11.19
		C784.23,560.54,787.86,561.96,792.25,561.96z"/>
	<path class="st1" d="M834.49,573.92v-80.11h14.16v80.11H834.49z"/>
	<path class="st1" d="M859.95,503.8c0-4.72,3.95-8.78,8.67-8.78c4.83,0,8.78,4.06,8.78,8.78c0,4.72-3.95,8.67-8.78,8.67
		C863.9,512.47,859.95,508.52,859.95,503.8z M861.6,573.92v-54.87h14.16v54.87H861.6z"/>
	<path class="st1" d="M939.51,525.97c5.27,5.6,7.9,12.4,7.9,20.52c0,8.12-2.63,15.04-7.9,20.63c-5.16,5.6-11.52,8.34-18.88,8.34
		c-7.68,0-13.61-2.63-17.78-8.01v6.47H888.7v-76.82h14.16v28.42c4.17-5.38,10.1-8.01,17.78-8.01
		C927.99,517.52,934.35,520.37,939.51,525.97z M918,561.96c4.39,0,8.01-1.43,10.86-4.28c2.96-2.96,4.39-6.69,4.39-11.19
		c0-4.5-1.43-8.23-4.39-11.08c-2.85-2.96-6.48-4.39-10.86-4.39s-8.01,1.43-10.86,4.39c-2.85,2.85-4.28,6.58-4.28,11.08
		c0,4.5,1.43,8.23,4.28,11.19C909.99,560.54,913.61,561.96,918,561.96z"/>
	<path class="st1" d="M955.75,503.8c0-4.72,3.95-8.78,8.67-8.78c4.83,0,8.78,4.06,8.78,8.78c0,4.72-3.95,8.67-8.78,8.67
		C959.7,512.47,955.75,508.52,955.75,503.8z M957.39,573.92v-54.87h14.16v54.87H957.39z"/>
	<path class="st1" d="M1034.98,540.67c8.01,1.65,18.44,5.49,18.33,17.23c0,5.6-2.08,9.99-6.37,13.06c-4.17,2.96-9.44,4.5-15.69,4.5
		c-11.3,0-18.99-4.39-23.05-13.06l12.29-6.91c1.65,4.72,5.16,7.13,10.75,7.13c5.05,0,7.57-1.54,7.57-4.72
		c0-2.96-4.39-4.61-9.99-6.04c-8.12-2.08-18.33-5.49-18.33-16.9c0-5.38,1.98-9.66,5.93-12.73c4.06-3.18,9-4.72,14.92-4.72
		c8.89,0,16.57,4.17,20.85,11.63l-12.07,6.58c-1.76-3.73-4.72-5.6-8.78-5.6c-3.62,0-6.37,1.76-6.37,4.5
		C1024.99,537.6,1029.38,539.25,1034.98,540.67z"/>
	<path class="st1" d="M1073.6,552.31c1.87,6.91,7.02,10.32,15.47,10.32c5.38,0,9.55-1.87,12.29-5.49l11.41,6.58
		c-5.38,7.79-13.39,11.74-23.92,11.74c-9.11,0-16.35-2.74-21.84-8.23c-5.49-5.49-8.23-12.4-8.23-20.74c0-8.23,2.74-15.14,8.12-20.63
		c5.38-5.6,12.4-8.34,20.85-8.34c8.01,0,14.71,2.74,19.86,8.34c5.27,5.6,7.9,12.4,7.9,20.63c0,1.87-0.22,3.73-0.55,5.82H1073.6z
		 M1101.37,541.33c-1.65-7.46-7.13-11.08-13.61-11.08c-7.57,0-12.73,4.06-14.38,11.08H1101.37z"/>
	<path class="st1" d="M1175.88,561.2c-3.84,6.91-10.54,11.85-18.44,13.61v4.17c4.28,0.99,7.68,3.84,7.68,8.56
		c0,7.68-8.01,11.08-24.14,10.1v-9.99c7.9,0.55,11.85-0.22,11.85-2.2c0-1.43-2.3-2.41-6.91-2.74v-7.68
		c-7.02-1.21-12.73-4.39-17.23-9.66c-4.39-5.27-6.58-11.52-6.58-18.88c0-8.23,2.74-15.03,8.23-20.63c5.6-5.6,12.51-8.34,20.74-8.34
		c10.65,0,20.08,5.49,24.58,14.16l-12.18,7.13c-2.2-4.5-6.91-7.35-12.51-7.35c-8.45,0-14.71,6.25-14.71,15.03
		c0,4.28,1.43,7.9,4.17,10.75c2.74,2.74,6.25,4.17,10.54,4.17c5.71,0,10.43-2.74,12.62-7.24L1175.88,561.2z"/>
</g>
</svg>
