<?xml version="1.0" encoding="utf-8"?>
<!-- Generator: Adobe Illustrator 28.1.0, SVG Export Plug-In . SVG Version: 6.00 Build 0)  -->
<svg version="1.1" id="Layer_1" xmlns="http://www.w3.org/2000/svg" xmlns:xlink="http://www.w3.org/1999/xlink" x="0px" y="0px"
	 viewBox="0 0 1000 1000" style="enable-background:new 0 0 1000 1000;" xml:space="preserve">
<style type="text/css">
	.st0{fill:#002163;}
</style>
<g>
	<path class="st0" d="M220.72,490.31l6.12,6.38l-8.33,7.4l-6.46-6.72c-4.59,2.55-9.61,3.83-14.97,3.83
		c-8.59,0-15.82-2.98-21.85-8.93c-6.04-6.04-9.01-13.35-9.01-22.02s2.98-15.99,9.01-21.94c6.04-6.04,13.27-9.01,21.85-9.01
		s15.82,2.98,21.85,9.01c6.04,5.95,9.1,13.27,9.1,21.94C228.03,477.98,225.56,484.61,220.72,490.31z M203.71,488.6l-9.78-10.2
		l8.33-7.4l10.46,10.88c2.38-3.4,3.57-7.31,3.57-11.65c0-5.7-1.87-10.37-5.53-14.03c-3.66-3.66-8.25-5.53-13.69-5.53
		s-10.03,1.87-13.69,5.53c-3.66,3.66-5.53,8.33-5.53,14.03c0,5.61,1.87,10.29,5.53,13.95c3.66,3.66,8.25,5.53,13.69,5.53
		C199.29,489.71,201.5,489.37,203.71,488.6z"/>
	<path class="st0" d="M268.51,457.48h10.97V500h-10.97v-5.02c-3.32,4.17-7.91,6.21-13.86,6.21c-5.7,0-10.54-2.13-14.63-6.46
		c-4-4.34-6.04-9.69-6.04-15.99c0-6.29,2.04-11.56,6.04-15.9c4.08-4.34,8.93-6.55,14.63-6.55c5.95,0,10.54,2.04,13.86,6.21V457.48z
		 M256.69,490.73c3.4,0,6.21-1.11,8.42-3.32c2.3-2.3,3.4-5.19,3.4-8.67s-1.11-6.38-3.4-8.59c-2.21-2.3-5.02-3.4-8.42-3.4
		s-6.21,1.11-8.42,3.4c-2.21,2.21-3.32,5.1-3.32,8.59s1.11,6.38,3.32,8.67C250.48,489.63,253.29,490.73,256.69,490.73z"/>
	<path class="st0" d="M289.44,500v-62.08h10.97V500H289.44z"/>
	<path class="st0" d="M309.17,445.66c0-3.66,3.06-6.8,6.72-6.8c3.74,0,6.8,3.15,6.8,6.8s-3.06,6.72-6.8,6.72
		C312.23,452.38,309.17,449.32,309.17,445.66z M310.44,500v-42.52h10.97V500H310.44z"/>
	<path class="st0" d="M370.82,462.84c4.08,4.34,6.12,9.61,6.12,15.9c0,6.29-2.04,11.65-6.12,15.99c-4,4.34-8.93,6.46-14.63,6.46
		c-5.95,0-10.54-2.04-13.78-6.21V500h-10.97v-59.53h10.97v22.02c3.23-4.17,7.82-6.21,13.78-6.21
		C361.89,456.29,366.82,458.5,370.82,462.84z M354.15,490.73c3.4,0,6.21-1.11,8.42-3.32c2.3-2.3,3.4-5.19,3.4-8.67
		s-1.11-6.38-3.4-8.59c-2.21-2.3-5.02-3.4-8.42-3.4s-6.21,1.11-8.42,3.4c-2.21,2.21-3.32,5.1-3.32,8.59s1.11,6.38,3.32,8.67
		C347.94,489.63,350.75,490.73,354.15,490.73z"/>
	<path class="st0" d="M384.68,500v-62.08h10.97V500H384.68z"/>
	<path class="st0" d="M435.96,474.23c-1.45-5.36-5.44-7.99-11.99-7.99c-3.49,0-6.38,1.02-8.42,3.06l-7.23-7.23
		c4-3.83,9.27-5.78,15.82-5.78c7.06,0,12.67,2.13,16.92,6.38c4.25,4.25,6.38,9.61,6.38,16.07c0,6.38-2.13,11.73-6.29,15.99
		c-4.17,4.34-9.61,6.46-16.16,6.46c-6.21,0-11.39-2.13-15.39-6.46c-4.08-4.34-6.12-9.61-6.12-15.99c0-1.45,0.17-2.89,0.42-4.51
		H435.96z M414.45,482.74c1.28,5.78,5.53,8.59,10.54,8.59c5.87,0,9.86-3.15,11.14-8.59H414.45z"/>
	<path class="st0" d="M466.07,464.79c2.04-5.44,7.14-8.16,12.93-8.16v12.25c-3.32-0.43-6.38,0.25-9.01,2.04
		c-2.64,1.79-3.91,4.68-3.91,8.76V500H455.1v-42.52h10.97V464.79z"/>
	<path class="st0" d="M484.1,445.66c0-3.66,3.06-6.8,6.72-6.8c3.74,0,6.8,3.15,6.8,6.8s-3.06,6.72-6.8,6.72
		C487.16,452.38,484.1,449.32,484.1,445.66z M485.37,500v-42.52h10.97V500H485.37z"/>
	<path class="st0" d="M541.5,460.97c3.06,3.15,4.59,7.4,4.59,12.93V500h-10.97v-24.75c0-5.7-3.32-8.76-8.42-8.76
		c-5.7,0-9.35,3.49-9.35,10.54V500h-10.97v-42.52h10.97v4.76c2.64-4,6.89-5.95,12.67-5.95C534.7,456.29,538.52,457.82,541.5,460.97z
		"/>
	<path class="st0" d="M594.57,474.23c6.21,1.28,14.29,4.25,14.2,13.35c0,4.34-1.62,7.74-4.93,10.12c-3.23,2.3-7.31,3.49-12.16,3.49
		c-8.76,0-14.71-3.4-17.86-10.12l9.52-5.36c1.28,3.66,4,5.53,8.33,5.53c3.91,0,5.87-1.19,5.87-3.66c0-2.3-3.4-3.57-7.74-4.68
		c-6.29-1.62-14.2-4.25-14.2-13.1c0-4.17,1.53-7.48,4.59-9.86c3.15-2.47,6.97-3.66,11.56-3.66c6.89,0,12.84,3.23,16.16,9.01
		l-9.35,5.1c-1.36-2.89-3.66-4.34-6.8-4.34c-2.81,0-4.93,1.36-4.93,3.49C586.83,471.85,590.23,473.13,594.57,474.23z"/>
	<path class="st0" d="M614.55,445.66c0-3.66,3.06-6.8,6.72-6.8c3.74,0,6.8,3.15,6.8,6.8s-3.06,6.72-6.8,6.72
		C617.61,452.38,614.55,449.32,614.55,445.66z M615.83,500v-42.52h10.97V500H615.83z"/>
	<path class="st0" d="M664.56,457.48h11.74L660.82,500c-4.42,12.25-11.57,17.6-22.45,17.01V506.8c5.87,0.09,9.1-2.38,11.14-8.16
		l-17.43-41.16h11.99l11.05,28.57L664.56,457.48z"/>
	<path class="st0" d="M712.1,457.48h10.97V500H712.1v-5.02c-3.32,4.17-7.91,6.21-13.86,6.21c-5.7,0-10.54-2.13-14.63-6.46
		c-4-4.34-6.04-9.69-6.04-15.99c0-6.29,2.04-11.56,6.04-15.9c4.08-4.34,8.93-6.55,14.63-6.55c5.95,0,10.54,2.04,13.86,6.21V457.48z
		 M700.28,490.73c3.4,0,6.21-1.11,8.42-3.32c2.3-2.3,3.4-5.19,3.4-8.67s-1.11-6.38-3.4-8.59c-2.21-2.3-5.02-3.4-8.42-3.4
		c-3.4,0-6.21,1.11-8.42,3.4c-2.21,2.21-3.32,5.1-3.32,8.59s1.11,6.38,3.32,8.67C694.07,489.63,696.87,490.73,700.28,490.73z"/>
	<path class="st0" d="M768.14,460.97c3.06,3.15,4.59,7.4,4.59,12.93V500h-10.97v-24.75c0-5.7-3.32-8.76-8.42-8.76
		c-5.7,0-9.35,3.49-9.35,10.54V500h-10.97v-59.53h10.97v21.77c2.64-4,6.89-5.95,12.67-5.95
		C761.34,456.29,765.16,457.82,768.14,460.97z"/>
	<path class="st0" d="M782.09,500v-42.52h10.97V500H782.09z"/>
	<path class="st0" d="M820.61,474.23c6.21,1.28,14.29,4.25,14.2,13.35c0,4.34-1.62,7.74-4.93,10.12c-3.23,2.3-7.31,3.49-12.16,3.49
		c-8.76,0-14.71-3.4-17.86-10.12l9.52-5.36c1.28,3.66,4,5.53,8.33,5.53c3.91,0,5.87-1.19,5.87-3.66c0-2.3-3.4-3.57-7.74-4.68
		c-6.29-1.62-14.2-4.25-14.2-13.1c0-4.17,1.53-7.48,4.59-9.86c3.15-2.47,6.97-3.66,11.56-3.66c6.89,0,12.84,3.23,16.16,9.01
		l-9.35,5.1c-1.36-2.89-3.66-4.34-6.8-4.34c-2.81,0-4.93,1.36-4.93,3.49C812.87,471.85,816.27,473.13,820.61,474.23z"/>
	<path class="st0" d="M841.87,500v-42.52h10.97V500H841.87z"/>
</g>
</svg>
